<svg version="1.1" x="0" y="0" xml:space="preserve" id="WL_UR_55_075_svg__svg152" xmlns="http://www.w3.org/2000/svg" viewBox="0 0 212.6 212.9"><style type="text/css" id="style2">.WL_UR_55_075_svg__st0{fill:#52ae32}.WL_UR_55_075_svg__st1{fill:#fff}.WL_UR_55_075_svg__st2{fill:#95c56e}.WL_UR_55_075_svg__st3{fill:#ffd500}.WL_UR_55_075_svg__st5{fill:#e41b18}</style><g id="WL_UR_55_075_svg__Stanzschablone" transform="translate(-190.2 -181.8)"><g id="WL_UR_55_075_svg__g149"><path class="WL_UR_55_075_svg__st0" d="M392.7 227.7c.4 0 1-.1 1-.7 0-.8-.9-1.3-1.7-1.3-.5 0-1 .2-1 .8 0 .9 1.1 1.2 1.7 1.2z" id="WL_UR_55_075_svg__path9"/><path class="WL_UR_55_075_svg__st0" d="M351.4 377.3c-1.3 0-1.5 1.6-1.5 3.2s.2 3.2 1.5 3.2 1.5-1.6 1.5-3.2-.2-3.2-1.5-3.2z" id="WL_UR_55_075_svg__path11"/><path class="WL_UR_55_075_svg__st0" d="M295.6 382.6c0 1 .5 1.4 1.3 1.4 1.8 0 2-1.8 2-2.9v-.4h-.5c-1.7 0-2.8.6-2.8 1.9z" id="WL_UR_55_075_svg__path13"/><path class="WL_UR_55_075_svg__st0" d="M392 200v-1.9h-.3c-.5 0-.7.2-.7.7 0 .7.4 1 1 1.2z" id="WL_UR_55_075_svg__path15"/><path class="WL_UR_55_075_svg__st0" d="M371.9 200.6h-47.1l-3.5 17.6c26.4 0 42.5 10 42.5 33.1 0 26.8-26.4 41-50.8 41-10 0-23.1-2.4-32.3-6.4l4.4-21.5c8.6 5 17.4 6.3 24.8 6.3 12.9 0 24.8-5.2 24.8-17.7 0-11.9-10.8-15.8-22.1-15.8-7.4 0-14.4.9-21 2.4l12.1-57.4h-24.3l-3.4 18.6h-47.1l-3.5 17.6c26.4 0 42.5 10 42.5 33.1 0 26.8-26.4 41-50.8 41-8.2 0-18.3-1.6-26.8-4.3v29l24.7-24.7 20.1 20.1 36.1-36 53.3 53.8-40.3 41h1.4l-4.4 15h-4.4l-1.7-5.7-3.2 3.3-36.9-36.1-20.1 20.1-24.7-24.7v51.4h212.6V182h-27.5zm-36.6 87.8 35.8 9.2-10.9 41.8-35.8-9.2zm-45 97.7h-3.9v-11.2h3.9zm0-12.9h-3.9V370h3.9zm8.7 12.9c0-.5-.1-1-.1-1.5-1.1 1.2-2 1.8-3.4 1.8-2 0-3.4-1.4-3.4-3.6 0-2.5 1.9-3.8 5.8-3.8h1v-.3c0-.7-.6-1.5-2.1-1.5-1.2 0-2.4.5-3.2 1.1l-.1-2.8c.9-.3 2.3-.7 4.2-.7 3.9 0 4.7 1.8 4.7 4.1v4.8c0 .9.1 1.8.1 2.5H299Zm9.4.3c-1.8 0-3.2-.4-4-.6l.2-3.3c.5.3 2 .9 3.4.9 1.5 0 2.1-.7 2.1-1.6 0-1-.7-1.3-1.8-1.7l-.9-.3c-2.5-1-3.2-2.3-3.2-4.4 0-2.8 2.3-4.4 5.5-4.4 1.1 0 2.6.1 3.8.6l-.2 2.9c-.7-.4-1.9-.8-3.1-.8-1.2 0-1.9.5-1.9 1.4 0 .8.4 1.1 1.7 1.7l1.8.8c1.4.6 2.5 1.6 2.5 3.8 0 3.3-2.4 5-5.9 5zm14.4-.3c-.1-.5-.1-1.2-.1-1.9-.2.6-1 2.1-3.2 2.1-1.9 0-3.4-1.1-3.4-3.6v-7.8h3.9v6.7c0 1.1.3 1.6 1.1 1.6 1.1 0 1.4-1 1.4-1.8v-6.5h3.9v9.3c0 .8.1 1.5.1 1.8h-3.7zm19.2 0h-4.2l-1.6-8-1.6 8h-4.3l-3-11.2h4l1.4 7.8 1.4-7.8h4.4l1.3 7.8 1.4-7.8h3.7zm9.4.3c-4.1 0-5.6-2.8-5.6-5.8 0-3.1 1.5-5.9 5.6-5.9s5.6 2.8 5.6 5.9c-.1 3-1.5 5.8-5.6 5.8zm14.4-8.3c-.2-.1-.7-.1-1.2-.1-1.2 0-2.1 1.1-2.1 2.6v5.6h-3.9v-7.9c0-1.6-.1-2.7-.1-3.2h3.6c.1.5.1 1.2.1 1.9.3-.9 1-2.1 2.9-2.1.3 0 .4 0 .6.1v3.1zm24.5-187.7.9.2 2.5 2.6V191l.9.2v3.5l-.9-.2-2.5-2.6v1.9l-.9-.2zm0 4.3 4.2.9v1.1l-4.2-.9zm1.5 2.3c.3 0 .6 0 .9.1v3c.8 0 1.1-.4 1.1-1.2 0-.5-.1-.9-.3-1.3l.9.1c.1.4.2.9.2 1.3 0 1.2-.6 2-1.8 2-1.3 0-2.6-1-2.6-2.4 0-.9.5-1.6 1.6-1.6zm1 22.1c-1 0-.9 1.9-2.4 1.9-1.2 0-1.7-1-1.7-2.1 0-.5.1-1 .3-1.5l.9.3c-.2.3-.3.8-.3 1.2 0 .4.2 1 .7 1 .9 0 .9-2 2.5-2 1.4 0 1.9 1.1 1.9 2.4 0 .5-.1 1.1-.3 1.6l-1-.3c.2-.4.4-.9.4-1.4-.1-.6-.4-1.1-1-1.1zm0-2.1c-1.5 0-2.6-1-2.6-2.5 0-.4.1-.8.2-1.1l.9.3c-.1.2-.2.5-.2.8 0 .9.8 1.4 1.6 1.4.5 0 1.1-.2 1.1-.9 0-.3-.1-.6-.2-.9l.9.1c.2.3.2.7.2 1.1-.1 1-.8 1.7-1.9 1.7zm-2.5-11.8V204l3.2-.2-3.2-1.6V201l4.2 2.3v1.2l-3.2.2 3.2 1.5v1.2l-4.2.6v-1.1l3.2-.3zm-1.8-10.9 1 .2v1.1l-1-.2zm-.2 16.9 2.3.5c-.3-.3-.5-.7-.5-1.2 0-.8.5-1.4 1.4-1.4.3 0 .7.1.9.1l2 .4v1.1l-2-.4c-.3-.1-.6-.1-.9-.1-.4 0-.6.2-.6.6 0 .8.7 1 1.3 1.2l2.1.5v1.1l-6.1-1.3v-1.1zm0 12.6 5.2 1.1c.4.1.7.1.9.2v1l-.6-.1c.5.3.7.7.7 1.4 0 1-.8 1.5-1.8 1.5-1.3 0-2.7-.7-2.7-2.1 0-.5.2-1 .6-1.3l-2.4-.5v-1.2zm4.3 18.8 1.9.4v1.1l-3.7-.8c-.2 0-.4-.1-.6-.1v-1l.8.1c-.5-.2-.9-.7-.9-1.2v-.4l1.1.2c0 .1-.1.3-.1.4.1.8.8 1.2 1.5 1.3zm-.8 1.8c.3 0 .6 0 .9.1v3c.8 0 1.1-.4 1.1-1.2 0-.5-.1-.9-.3-1.3l.9.1c.1.4.2.9.2 1.3 0 1.2-.6 2-1.8 2-1.3 0-2.6-1-2.6-2.4 0-.9.5-1.6 1.6-1.6zm-.3-8.8c-.4 0-.5.5-.5.8 0 .5.1 1 .3 1.4l-.9-.2c-.2-.5-.3-.9-.3-1.4 0-.8.3-1.6 1.3-1.6.6 0 2.2.4 3 .5v.9l-.6-.1c.5.4.7.8.7 1.4 0 .8-.4 1.3-1.2 1.3-1.4 0-1.5-1.6-1.5-2.6v-.4h-.3zm.9-3.1 2.1.5v1.1l-3.6-.8c-.3 0-.5-.1-.6-.1v-1.1l.4.1c-.3-.3-.5-.7-.5-1.2 0-.8.5-1.4 1.4-1.4.3 0 .7.1.9.1l2 .4v1.1l-2-.4c-.3-.1-.6-.1-.9-.1-.4 0-.6.2-.6.6 0 .8.7 1.1 1.4 1.2zm-4.1 6 6.1 1.3v1.1l-6.1-1.3zm0 9.9 5.2 1.1c.4.1.7.1.9.2v1l-.6-.1c.5.3.7.7.7 1.4 0 1-.8 1.5-1.8 1.5-1.3 0-2.7-.7-2.7-2.1 0-.5.2-1 .6-1.3l-2.4-.5v-1.2zm6.2 20.4v1.4l-5.7.4v-1.1l4.4-.2-4.4-1.9v-1.5h4.4l-4.4-2v-1.2l5.7 2.7v1.4l-4.6.1zm-1.1-5.6c-1.4 0-1.5-1.6-1.5-2.6v-.4h-.4c-.4 0-.5.5-.5.8 0 .5.1 1 .3 1.4l-.9-.2c-.2-.5-.3-.9-.3-1.4 0-.8.3-1.6 1.3-1.6.6 0 2.2.4 3 .5v.9l-.6-.1c.5.4.7.8.7 1.4.1.8-.3 1.3-1.1 1.3zm-1-6.1 2.1.5v1.1l-3.6-.8c-.3 0-.5-.1-.6-.1v-1.1l.4.1c-.3-.3-.5-.7-.5-1.2 0-.8.5-1.4 1.4-1.4.3 0 .7.1.9.1l2 .4v1.1l-2-.4c-.3-.1-.6-.1-.9-.1-.4 0-.6.2-.6.6 0 .8.7 1.1 1.4 1.2zm-9.8 117.8 1.4 7.8 1.4-7.8h4.4l1.3 7.8 1.4-7.8h3.7l-3 11.2H389l-1.6-8-1.6 8h-4.3l-3-11.2zm-10.4 11.5c-4.1 0-5.6-2.8-5.6-5.8 0-3.1 1.5-5.9 5.6-5.9s5.6 2.8 5.6 5.9c0 3-1.5 5.8-5.6 5.8z" id="WL_UR_55_075_svg__path17"/><path class="WL_UR_55_075_svg__st0" d="M372.2 377.3c-1.3 0-1.5 1.6-1.5 3.2s.2 3.2 1.5 3.2 1.5-1.6 1.5-3.2c.1-1.6-.2-3.2-1.5-3.2z" id="WL_UR_55_075_svg__path19"/><path class="WL_UR_55_075_svg__st0" id="WL_UR_55_075_svg__polygon21" d="m277.9 377.4 1 4.5 1.7-7.2z"/><path class="WL_UR_55_075_svg__st0" d="M392.7 252.4c.4 0 1-.1 1-.7 0-.8-.9-1.3-1.7-1.3-.5 0-1 .2-1 .8 0 .8 1.1 1.2 1.7 1.2z" id="WL_UR_55_075_svg__path23"/><path class="WL_UR_55_075_svg__st0" d="M238.7 252.9c0-11.9-10.8-15.8-22.1-15.8-7.4 0-14.4.9-21 2.4l12.1-57.4h-17.4V265c8.3 4.5 16.6 5.7 23.7 5.7 12.8-.1 24.7-5.3 24.7-17.8z" id="WL_UR_55_075_svg__path25"/><path class="WL_UR_55_075_svg__st0" d="M393.3 237.6c.3 0 .4-.3.4-.6 0-.8-.6-1.1-1.2-1.2v.4c0 .5.1 1.4.8 1.4z" id="WL_UR_55_075_svg__path27"/><path class="WL_UR_55_075_svg__st0" d="M392.5 260.4v.4c0 .5.1 1.4.8 1.4.3 0 .4-.3.4-.6.1-.8-.5-1-1.2-1.2z" id="WL_UR_55_075_svg__path29"/><path class="WL_UR_55_075_svg__st0" d="M392 247.4v-1.9h-.3c-.5 0-.7.2-.7.7 0 .7.4 1 1 1.2z" id="WL_UR_55_075_svg__path31"/><path class="WL_UR_55_075_svg__st1" d="M267.9 251.3c0-23.1-16.2-33.1-42.5-33.1l3.5-17.6H276l3.4-18.6h-71.7l-12.1 57.4c6.6-1.4 13.7-2.4 21-2.4 11.3 0 22.1 3.9 22.1 15.8 0 12.6-11.9 17.7-24.8 17.7-7.1 0-15.4-1.2-23.7-5.7v23c8.5 2.8 18.6 4.3 26.8 4.3 24.5.2 50.9-14 50.9-40.8z" id="WL_UR_55_075_svg__path33"/><path class="WL_UR_55_075_svg__st1" d="M312.6 237c11.3 0 22.1 3.9 22.1 15.8 0 12.6-11.9 17.7-24.8 17.7-7.4 0-16.2-1.3-24.8-6.3l-4.4 21.5c9.3 4.1 22.3 6.4 32.3 6.4 24.5 0 50.8-14.1 50.8-41 0-23.1-16.2-33.1-42.5-33.1l3.5-17.6h47.1l3.4-18.6h-71.7l-12.1 57.4c6.6-1.2 13.7-2.2 21.1-2.2z" id="WL_UR_55_075_svg__path35"/><path class="WL_UR_55_075_svg__st2" d="M270.1 333.6c1-.1 1.6.1 2.5.6l3.2.2.7-.8c.1-.1.4-.2.2-.4-.6-.6-4.5-1.6-7.1-.7-1.6.5-5.3 1.8-3.7 2.4.6.2.9.2 1.6.1 1.2-.1 1.5-1.3 2.6-1.4z" id="WL_UR_55_075_svg__path37"/><path class="WL_UR_55_075_svg__st2" d="M284.2 337.8c.2.4.5.6.9.9 2 1.2 3.3-.6 3.1-1.7 0-.1 1.1.3 1.8.2.2 0 .5-.1.5-.1 0-.2.2-1 0-1-2.6-.3-3.5-.4-5.3.1.6-.6 1.3-1 2.2-1.4 1.2-.4 1.9-.5 3.2-.2l.8-.9c-3.3-.8-7.3-.6-8.3 2.6l-.3 1.5c-.1 3.1 1.8 6.7 3 9.7.1.6 0 1.2-.3 1.6-.4.6-.7 1-1.4 1.2-.7.2-1.2.2-1.9-.1-.7-.3-.9-1.3-1.4-1.4-1.6-.4-2.8.2-4.6 1.2 3.5.7 4.2 1.3 8.7 1.5 1.6.1 2.2-1.3 1.8-2.5-.1-1.3-.9-3.1-1.5-4.1-.5-1.4-1.1-2.9-1.5-4.5-.1-.9 0-1.5.3-2.3z" id="WL_UR_55_075_svg__path39"/><path class="WL_UR_55_075_svg__st2" d="M283.5 354.4c-1 .3-1.3 1.2-2.4 1.2-.9-.1-1.2-1.5-1.9-1.1-.3.2-.2.5-.5.7-2.1 1.1-3.8-.4-5 .5-.5.4.2.7 1 .9 1.2.3 1.7.6 2.8.9 1.8.4 2.6 1.1 4.6.7.2 0 .9-.5 1.4-.8.8-.4 2.3-.7 2.1-.9-.4-.2-1.8-1.2-2.1-2.1z" id="WL_UR_55_075_svg__path41"/><path class="WL_UR_55_075_svg__st2" d="M274.9 337.4c.7 0 1.7-.1 1.7-.1 0-.2.2-1 0-1-3.3-.4-5.9-.4-9.1.8-.4.1.1.6.2 1l1.3-.2c.2.5.5.8 1 1.1 2 1.2 3.3-.6 3.1-1.7 0-.3 1.1.1 1.8.1z" id="WL_UR_55_075_svg__path43"/><path class="WL_UR_55_075_svg__st2" d="M261.3 303.9c-7.2 1.4-17.6 4.6-26.3 11.4v6.8c5.1-4.5 12.3-8.5 21.6-14 8.4-5.1 14.5-17.1 33.2-10.5 1.9.6 2.2 9.4 1.2 12.1 0-3.3-.6-6.8-1.8-7.2-18.7-6.6-24.8 5.5-33.2 10.5-9.6 5.8-16.4 9.1-21.1 13.1v19.5c.7 0 1.4.1 2 .4 4.1 1.7 8.6-1.2 7.7-.3-2.4 2.6-4.8 3.8-9.8 2.2l36.8 35.8 3.2-3.3-2.8-9.3h4.3l1.4 6.3 2.7-2.7.8-3.6h2.7l40.3-41-53.3-53.8-36.1 36v.1c7.6-4.7 16.7-7.5 26.5-8.5zm7.6 8v.6zm-20.6 30.6c.3-1.2 1.2-2.4 2.3-3.6 1.8-1.9 4-3.4 4.5-3.5.9-.1-1.4 2.6-.3 4.3 1.1 1.6 5.2 3.1 4 .4-1.3-2.8-.1-3.7-.1-3.7s2.9 6 .1 7.3c-2.8 1.2-11.3 1.9-10.5-1.2zm42 8.4c-.5 1.2-1 2.3-1.2 3.4-1.8 6.8-1.4 8.3-3.5 10.6-1.2 1.3-2.5 2.1-4 2.4-1.4.3-2.9.3-4.6-.1-4.7-1.1-7-2.2-10.2-5.7-2.8-3.1-4.4-8.9-10.1-11.2-2.2-.9-2.8-1-3.8-2.3-2.1-2.5 5.2-.1 7.7-3 2.8-3.2-2.1-7.8.9-10.9 7.1-7.3 29.5-6.1 30.3-2.5-.3 2.7-.4 3.6 0 6.3.3 2.5 1.4 4.3.8 6.7-.4 1.6-1 3.1-1.6 4.5 3 2.3 10.6 2.9 10.6 2.9-5.2 1.5-9-.2-11.3-1.1zm16.3-4.6c-.1 1.7-.9 2.6-1.9 3.8.1-.3.2-.7.2-1.1.3-4.1-.5-7.6-3-11l.1-.1h-.2c-2.8-3.7-6.5-7.3-9.7-11.5l-.4-5.7c6.3 9.7 15.5 16.1 14.9 25.6z" id="WL_UR_55_075_svg__path45"/><path class="WL_UR_55_075_svg__st2" d="M219.3 340.5c-.3 1.4-.6 2.7-.9 3.8-.3 1.4-.5 2.6 0 3.1 2 1.7 4.5.7 5.1.3 1.3-.7 1.8-3.5 1.9-2.8.2 1.4 0 2.5-.6 3.2 2.1-.9 6.7-2.7 10.1-2.5v-19.5c-4.5 3.8-7.2 8.3-8.9 16.2l-.1.1-.1.2c.3-9.6 3.3-15.4 9.1-20.5v-6.8c-7.1 5.6-13.2 13.7-15.6 25.2z" id="WL_UR_55_075_svg__path47"/><path class="WL_UR_55_075_svg__st2" d="M235 347.9c-.4-.2-.8-.3-1.3-.5-2.4-.9-8.3.9-9.7 1.3-1.1.5-2.8.5-5.2-.1-1.8-.4-1.8-2.9-1.8-2.9 0-15.5 7.1-26.4 17.9-33.3v-.1l-20.1-20.1-24.6 24.8v26.3l24.7 24.7z" id="WL_UR_55_075_svg__path49"/><path class="WL_UR_55_075_svg__st0" d="M287.7 347.5s.7-1.3 1.2-1c.6.4.5.4 1.2 1.6.2.3.5.6.9.9.6-1.4 1.1-2.9 1.6-4.5.6-2.4-.5-4.2-.8-6.7-.3-2.7-.3-3.6 0-6.3-.8-3.7-23.2-4.9-30.3 2.5-3 3.1 1.9 7.7-.9 10.9-2.5 2.9-9.8.5-7.7 3 1 1.2 1.6 1.4 3.8 2.3 5.7 2.3 7.2 8.1 10.1 11.2 3.2 3.5 5.4 4.6 10.2 5.7 1.7.4 3.2.4 4.6.1 1.5-.3 2.8-1.1 4-2.4 2.1-2.3 1.7-3.9 3.5-10.6.3-1.1.7-2.2 1.2-3.4-.2-.1-.3-.1-.4-.2-2.4-.8-2.2-3.1-2.2-3.1zm-21.8-12.6c-1.6-.6 2.1-1.8 3.7-2.4 2.7-.9 6.5.1 7.1.7.1.1-.1.2-.2.4l-.7.8-3.2-.2c-.8-.5-1.5-.7-2.5-.6-1.2.1-1.5 1.3-2.6 1.4-.6.1-1 .1-1.6-.1zm4.1 4c-.5-.3-.8-.5-1-1.1l-1.3.2c-.1-.4-.6-.9-.2-1 3.2-1.2 5.8-1.2 9.1-.8.2 0 0 .8 0 1 0 0-1 .1-1.7.1s-1.8-.3-1.8-.2c.2 1.1-1.1 3-3.1 1.8zm13.4 18.5c-.6.3-1.2.7-1.4.8-2 .5-2.8-.2-4.6-.7-1.1-.3-1.6-.6-2.8-.9-.8-.2-1.5-.5-1-.9 1.3-.9 2.9.6 5-.5.3-.2.2-.5.5-.7.7-.5 1.1 1 1.9 1.1 1 .1 1.4-.8 2.4-1.2.4.9 1.8 1.9 2 2.1.3.2-1.2.5-2 .9zm.4-17c.4 1.6.9 3.1 1.5 4.5.6 1 1.5 2.8 1.5 4.1.4 1.1-.3 2.6-1.8 2.5-4.5-.2-5.2-.8-8.7-1.5 1.9-1 3-1.6 4.6-1.2.5.1.7 1.1 1.4 1.4.7.3 1.2.4 1.9.1.7-.2 1-.6 1.4-1.2.3-.4.3-1 .3-1.6-1.2-3-3.1-6.6-3-9.7.1-.6.1-1.1.3-1.5 1-3.2 5-3.4 8.3-2.6l-.8.9c-1.2-.3-2-.2-3.2.2-.9.3-1.7.8-2.2 1.4 1.8-.6 2.7-.5 5.3-.1.2 0 0 .8 0 1 0 0-.3.1-.5.1-.7.1-1.8-.3-1.8-.2.2 1.1-1 3-3.1 1.7-.4-.3-.7-.5-.9-.9l-.1.3c-.5.9-.5 1.4-.4 2.3z" id="WL_UR_55_075_svg__path51"/><path class="WL_UR_55_075_svg__st0" d="m225.9 342.6.1-.2.1-.1c1.7-7.9 4.4-12.3 8.9-16.2 4.7-4 11.5-7.4 21.1-13.1 8.4-5.1 14.5-17.1 33.2-10.5 1.1.4 1.7 3.9 1.8 7.2 1-2.6.6-11.4-1.2-12.1-18.7-6.6-24.8 5.5-33.2 10.5-9.3 5.6-16.5 9.5-21.6 14-5.9 5.1-8.9 10.9-9.2 20.5z" id="WL_UR_55_075_svg__path53"/><path class="WL_UR_55_075_svg__st0" id="WL_UR_55_075_svg__polygon55" d="M268.8 312.5h.1v-.6z"/><path class="WL_UR_55_075_svg__st0" d="M301.7 337.8h.2l-.1.1c2.6 3.4 3.3 6.9 3 11 0 .4-.1.8-.2 1.1 1-1.2 1.8-2.1 1.9-3.8.6-9.5-8.6-15.8-14.9-25.7l.4 5.7c3.3 4.3 7 7.9 9.7 11.6z" id="WL_UR_55_075_svg__path57"/><path class="WL_UR_55_075_svg__st0" d="m223.8 348.6 1-.5c.6-.7.8-1.8.6-3.2-.1-.7-.6 2.1-1.9 2.8-.6.3-3.1 1.3-5.1-.3-.5-.4-.3-1.7 0-3.1.2-1.1.6-2.5.9-3.8 2.4-11.5 8.5-19.5 15.7-25.1 8.8-6.8 19.1-10 26.3-11.4-9.8 1.1-18.9 3.9-26.3 8.5-10.9 6.9-17.9 17.9-17.9 33.3 0 0-.1 2.5 1.8 2.9 2.4.6 4.1.6 5.2.1-.2.1-.3.1-.3.1z" id="WL_UR_55_075_svg__path59"/><path class="WL_UR_55_075_svg__st0" d="M258.6 336.3s-1.1 1 .1 3.7c1.3 2.8-2.8 1.3-4-.4-1.1-1.6 1.2-4.4.3-4.3-.6.1-2.8 1.6-4.5 3.5-1.1 1.1-2 2.4-2.3 3.6-.8 3.1 7.7 2.5 10.5 1.2s-.1-7.3-.1-7.3z" id="WL_UR_55_075_svg__path61"/><path class="WL_UR_55_075_svg__st0" d="M290.1 348.2c-.7-1.2-.6-1.2-1.2-1.6-.5-.4-1.2 1-1.2 1s-.2 2.2 2.1 3.1c.1.1.3.1.4.2 2.4 1 6.2 2.7 11.4 1.1 0 0-7.6-.6-10.6-2.9-.4-.3-.7-.6-.9-.9z" id="WL_UR_55_075_svg__path63"/><path class="WL_UR_55_075_svg__st0" d="M244.7 345.7c.8-.9-3.7 2-7.7.3-.6-.2-1.3-.4-2-.4-3.4-.1-8.1 1.7-10.1 2.5l-1 .5-.1.3s.1 0 .3-.1c1.4-.5 7.3-2.2 9.7-1.3.4.2.9.3 1.3.4 4.9 1.6 7.2.4 9.6-2.2z" id="WL_UR_55_075_svg__path65"/><path id="WL_UR_55_075_svg__polygon67" d="m278.9 381.9-1-4.5-1.4-6.3h-4.3l2.8 9.3 1.7 5.7h4.3l4.5-15h-4.1l-.8 3.6-1.7 7.2z"/><path id="WL_UR_55_075_svg__rect69" d="M286.4 370h3.9v3.2h-3.9z"/><path id="WL_UR_55_075_svg__rect71" d="M286.4 374.9h3.9v11.2h-3.9z"/><path d="M302.3 378.8c0-2.3-.8-4.1-4.7-4.1-1.9 0-3.3.4-4.2.7l.1 2.8c.8-.5 2-1.1 3.2-1.1 1.5 0 2.1.8 2.1 1.5v.3h-1c-3.9 0-5.8 1.3-5.8 3.8 0 2.1 1.4 3.6 3.4 3.6 1.4 0 2.2-.6 3.4-1.8 0 .5.1 1 .1 1.5h3.4c-.1-.7-.1-1.6-.1-2.5v-4.7zm-3.4 2.3c0 1.1-.2 2.9-2 2.9-.8 0-1.3-.4-1.3-1.4 0-1.3 1.1-1.8 2.9-1.8h.5v.3z" id="WL_UR_55_075_svg__path73"/><path d="m311.8 377.6-1.8-.8c-1.3-.6-1.7-.9-1.7-1.7 0-.9.7-1.4 1.9-1.4s2.4.4 3.1.8l.2-2.9c-1.2-.5-2.6-.6-3.8-.6-3.2 0-5.5 1.6-5.5 4.4 0 2.1.8 3.5 3.2 4.4l.9.3c1.2.5 1.8.7 1.8 1.7 0 .9-.5 1.6-2.1 1.6-1.4 0-2.9-.6-3.4-.9l-.2 3.3c.8.2 2.2.6 4 .6 3.5 0 5.9-1.7 5.9-5 0-2.2-1.2-3.2-2.5-3.8z" id="WL_UR_55_075_svg__path75"/><path d="M326.3 374.9h-3.9v6.5c0 .8-.2 1.8-1.4 1.8-.8 0-1.1-.5-1.1-1.6v-6.7H316v7.8c0 2.5 1.5 3.6 3.4 3.6 2.2 0 2.9-1.5 3.2-2.1 0 .6 0 1.4.1 1.9h3.6c-.1-.3-.1-1-.1-1.8v-9.4z" id="WL_UR_55_075_svg__path77"/><path id="WL_UR_55_075_svg__polygon79" d="M338.6 374.9h-4.4l-1.5 7.8-1.4-7.8h-3.9l3 11.2h4.2l1.6-7.9h.1l1.5 7.9h4.2l3-11.2h-3.7l-1.4 7.8z"/><path d="M351.4 374.7c-4.1 0-5.6 2.8-5.6 5.9 0 3.1 1.5 5.8 5.6 5.8s5.6-2.8 5.6-5.8c-.1-3.1-1.5-5.9-5.6-5.9zm0 9.1c-1.3 0-1.5-1.6-1.5-3.2s.2-3.2 1.5-3.2 1.5 1.6 1.5 3.2-.2 3.2-1.5 3.2z" id="WL_UR_55_075_svg__path81"/><path d="M362.3 376.8c0-.6-.1-1.4-.1-1.9h-3.6c.1.5.1 1.7.1 3.2v7.9h3.9v-5.6c0-1.5.9-2.6 2.1-2.6.5 0 1 .1 1.2.1v-3.4c-.2 0-.4-.1-.6-.1-2 .3-2.7 1.5-3 2.4z" id="WL_UR_55_075_svg__path83"/><path d="M372.2 374.7c-4.1 0-5.6 2.8-5.6 5.9 0 3.1 1.5 5.8 5.6 5.8s5.6-2.8 5.6-5.8c0-3.1-1.5-5.9-5.6-5.9zm0 9.1c-1.3 0-1.5-1.6-1.5-3.2s.2-3.2 1.5-3.2 1.5 1.6 1.5 3.2c.1 1.6-.2 3.2-1.5 3.2z" id="WL_UR_55_075_svg__path85"/><path id="WL_UR_55_075_svg__polygon87" d="m387.5 378.2 1.6 7.9h4.2l3-11.2h-3.7l-1.4 7.8-1.4-7.8h-4.4l-1.4 7.8-1.4-7.8h-4l3 11.2h4.3l1.6-7.9z"/><path id="WL_UR_55_075_svg__polygon89" d="M388.8 262.6v1.1l4.4 2.1h-4.4v1.5l4.4 1.9v.1l-4.4.1v1.2l5.7-.4v-1.4l-4.6-2 4.6-.1v-1.4z"/><path d="m393.8 260.6.6.1v-.9c-.8-.1-2.5-.5-3-.5-1 0-1.3.8-1.3 1.6 0 .5.1 1 .3 1.4l.9.2c-.2-.4-.3-.9-.3-1.4 0-.4.1-.8.5-.8h.4v.4c0 1 .1 2.6 1.5 2.6.8 0 1.2-.5 1.2-1.3 0-.7-.3-1-.8-1.4zm-.5 1.6c-.7 0-.8-.9-.8-1.4v-.4c.7.2 1.2.4 1.2 1.2.1.3-.1.6-.4.6z" id="WL_UR_55_075_svg__path91"/><path d="M391.6 255.4c.3 0 .6.1.9.1l2 .4v-1.1l-2-.4c-.3-.1-.6-.1-.9-.1-.8 0-1.4.5-1.4 1.4 0 .5.2.9.5 1.2l-.4-.1v1.1c.1 0 .4.1.6.1l3.6.8v-1.1l-2.1-.5c-.6-.1-1.3-.4-1.3-1.2-.1-.4.2-.6.5-.6z" id="WL_UR_55_075_svg__path93"/><path d="M390.2 251.4c0 1.4 1.4 2.1 2.7 2.1.9 0 1.8-.5 1.8-1.5 0-.6-.3-1-.7-1.4l.6.1v-1c-.2 0-.6-.1-.9-.2l-5.2-1.1v1.1l2.4.5c-.5.4-.7.8-.7 1.4zm1.8-1c.8 0 1.7.5 1.7 1.3 0 .5-.6.7-1 .7-.6 0-1.7-.4-1.7-1.2 0-.6.5-.8 1-.8z" id="WL_UR_55_075_svg__path95"/><path d="M392.7 248.6c1.3 0 1.8-.8 1.8-2 0-.5-.1-.9-.2-1.3l-.9-.1c.2.4.3.8.3 1.3 0 .8-.3 1.2-1.1 1.2v-3c-.3-.1-.6-.1-.9-.1-1.1 0-1.6.7-1.6 1.7.1 1.3 1.3 2.3 2.6 2.3zm-1-3.1h.3v1.9c-.6-.2-1-.5-1-1.2 0-.5.2-.7.7-.7z" id="WL_UR_55_075_svg__path97"/><path d="M390.2 240.7v.4c0 .5.4 1 .9 1.2l-.8-.1v1c.2 0 .4.1.6.1l3.7.8V243l-1.9-.4c-.7-.1-1.4-.5-1.4-1.3 0-.1 0-.3.1-.4z" id="WL_UR_55_075_svg__path99"/><path id="WL_UR_55_075_svg__polygon101" d="m388.3 239.6 6.2 1.3v-1.1l-6.2-1.3z"/><path d="M393.4 238.6c.8 0 1.2-.5 1.2-1.3 0-.6-.3-1-.7-1.4l.6.1v-.9c-.8-.1-2.5-.5-3-.5-1 0-1.3.8-1.3 1.6 0 .5.1 1 .3 1.4l.9.2c-.2-.4-.3-.9-.3-1.4 0-.4.1-.8.5-.8h.4v.4c-.1 1.1 0 2.6 1.4 2.6zm-.9-2.8c.7.2 1.2.4 1.2 1.2 0 .3-.1.6-.4.6-.7 0-.8-.9-.8-1.4z" id="WL_UR_55_075_svg__path103"/><path d="M391.6 230.7c.3 0 .6.1.9.1l2 .4v-1.1l-2-.4c-.3-.1-.6-.1-.9-.1-.8 0-1.4.5-1.4 1.4 0 .5.2.9.5 1.2l-.4-.1v1.1c.1 0 .4.1.6.1l3.6.8V233l-2.1-.5c-.6-.1-1.3-.4-1.3-1.2-.1-.3.2-.6.5-.6z" id="WL_UR_55_075_svg__path105"/><path d="M390.2 226.8c0 1.4 1.4 2.1 2.7 2.1.9 0 1.8-.5 1.8-1.5 0-.6-.3-1-.7-1.4l.6.1v-1c-.2 0-.6-.1-.9-.2l-5.2-1.1v1.1l2.4.5c-.5.4-.7.8-.7 1.4zm1.8-1c.8 0 1.7.5 1.7 1.3 0 .5-.6.7-1 .7-.6 0-1.7-.4-1.7-1.2 0-.6.5-.8 1-.8z" id="WL_UR_55_075_svg__path107"/><path d="M394.3 221.9c.2-.5.3-1.1.3-1.6 0-1.3-.5-2.4-1.9-2.4-1.6 0-1.5 2-2.5 2-.5 0-.7-.5-.7-1 0-.4.1-.9.3-1.2l-.9-.3c-.2.5-.3 1-.3 1.5 0 1.1.5 2.1 1.7 2.1 1.5 0 1.4-1.9 2.4-1.9.6 0 .9.5.9 1.1 0 .5-.2 1-.4 1.4z" id="WL_UR_55_075_svg__path109"/><path d="m394.4 214.2-.9-.1c.1.3.2.6.2.9 0 .8-.5.9-1.1.9-.8 0-1.6-.5-1.6-1.4 0-.3.1-.6.2-.8l-.9-.3c-.1.3-.2.7-.2 1.1 0 1.5 1.1 2.5 2.6 2.5 1.1 0 1.8-.7 1.8-1.8.1-.3.1-.7-.1-1z" id="WL_UR_55_075_svg__path111"/><path d="m394.5 212.5-2.1-.5c-.6-.1-1.3-.4-1.3-1.2 0-.4.2-.6.6-.6.3 0 .6.1.9.1l2 .4v-1.1l-2-.4c-.3-.1-.6-.1-.9-.1-.8 0-1.4.5-1.4 1.4 0 .5.2.9.5 1.2l-2.3-.5v1.1l6.1 1.3v-1.1z" id="WL_UR_55_075_svg__path113"/><path id="WL_UR_55_075_svg__polygon115" d="M394.5 207.6v-1.2l-3.2-1.6 3.2-.2v-1.2l-4.2-2.4v1.1l3.1 1.7-3.1.2v1.2l3.1 1.6-3.1.3v1.1z"/><path d="M392.7 201.2c1.3 0 1.8-.8 1.8-2 0-.5-.1-.9-.2-1.3l-.9-.1c.2.4.3.8.3 1.3 0 .8-.3 1.2-1.1 1.2v-3c-.3-.1-.6-.1-.9-.1-1.1 0-1.6.7-1.6 1.7.1 1.3 1.3 2.3 2.6 2.3zm-1-3.1h.3v1.9c-.6-.2-1-.5-1-1.2 0-.5.2-.7.7-.7z" id="WL_UR_55_075_svg__path117"/><path id="WL_UR_55_075_svg__polygon119" d="m388.5 195.4 1 .2v-1.1l-1-.2z"/><path id="WL_UR_55_075_svg__polygon121" d="m390.3 195.8 4.2.9v-1.1l-4.2-.9z"/><path id="WL_UR_55_075_svg__polygon123" d="M394.5 194.7v-3.5l-.9-.2v2.2l-2.5-2.6-.8-.2v3.3l.8.2V192l2.5 2.6z"/><path class="WL_UR_55_075_svg__st3" d="m371.2 297.6-35.8-9.2-10.9 41.8 35.8 9.2zm-12 15.5h-.4l-1.8-.4c-.2.4-.3.9-.5 1.3-.1.3-.3.6-.5.8-.6.9-1.7 1.8-3 2.2-.3.1-.6.4-.8.6-.3.4-.5.8-.8 1.2-.3.5-.8 1.1-1 1.6 0 .1-.1.2-.1.2l-.3 1.2v.3c0 .4-.1 1 0 1.5.2.6.2.9.1 1.3-.2.6-.6 1.2-1.2 1.8.4 1.1.5 2.2.2 3.2-.5 2-2.4 3.9-5.2 3.9-.3 0-.9 0-.9-.1l-1.1-.3c-.1 0-.3-.1-.4-.2-.9-.4-1.8-1-2.5-2.1-.4-.7-.7-1.5-.8-2.2v-1.4c.1-.4.1-.5.2-.9.2-.6.6-1.2 1-1.8.2-.2.6-.5.6-.5 0-.1-.5-1.3-.3-2.1.2-1 1.3-1.3 1.8-3.2.1-.4.2-.8.2-1.2 0-.9-.1-1.7-.1-2.6 0-.5-.4-1.3-.9-1.8-.2-.2-.3-.4-.4-.6-.7-1.2-.8-2.3-.8-3.3 0-.5.1-.9.2-1.4-.2-.1-.3-.1-.5-.2l-1.2-.3c-.1 0-.2-.1-.4-.2-.9-.4-2.2-1.6-2.3-2.9v-.4c1-.2 2.4-.3 3.3-.1.1 0 .6.2.9.3.2.1.5.3.5.3h.1v-.1c0-.1-.5-1.7-.7-2.5-.1-.6-.2-1.2-.2-1.7 0-.4.1-1 .2-1.1.1-.4.5-1 .7-1.4.6-.9 1.7-1.8 3-2.5.6-.4 1.5-.8 2-1.2.3-.2.4-.6.5-.9l.2-.9c.1.1.3.3.3.5.2.6.2 1.2.1 1.7-.4 1.6-2.9 2.3-3.6 4-.1.3-.4.9-.4.9 0 .1 0 .1-.1.5-.1.7-.1 1.6.2 2.5.1.2.2.5.3.7.2.4.5 1.1.8 1.4.1.1.1.2.2.2s.2-.1.3-.1c.4-.1.3 0 .6 0 .6.2.8.5.9.5.1 0 .2-.1.3-.1.2 0 .6 0 .8.1.9.2 1.1.8 1.4.9.1 0 .3-.1.4-.2.4-.1 1-.1 1.4 0 1 .3 1.4 1 1.5 1 .2.1.8-.3 1.6-.1.2.1.7.3.8.4 0 .1.1.2.2.2s.4-.1.6-.1c.1 0 .4.1.4.1.5.1.6.4.8.5.1 0 .3-.1.4-.2.9-.5 2-1.1 2.4-1.8 0-.1.1-.2.2-.3l.3-.6c.1-.3.3-.9.4-1 .3-1 .3-1.9-.4-3.3-.6-1.3-1-2.2-.7-3.2.1-.5.8-1.5 1.5-1.6-.1.2-.2.3-.2.5-.1.3-.1.3-.1.4-.2.9 0 1 .7 2.4.5.9 1.4 2.1 1.6 3 .2.8.3 1.6.3 2.3l-.2.7c-.4 1.5-1.9 2.9-3.2 4.1v.1c.1 0 .4-.1.6 0 .3 0 .9.1.9.1 1 .3 2 1 2.9 1.7-.9 1.5-2.8 2.1-3.8 2z" id="WL_UR_55_075_svg__path125"/><path d="M362.7 311.4c-.8-.7-1.9-1.4-2.9-1.7-.1 0-.6-.1-.9-.1-.2 0-.6.1-.6 0-.1 0 0-.1 0-.1 1.2-1.2 2.8-2.6 3.2-4.1l.2-.7c0-.7 0-1.6-.3-2.3-.3-.9-1.1-2.1-1.6-3-.8-1.4-1-1.5-.7-2.4 0-.1 0-.1.1-.4 0-.2.2-.3.2-.5-.7.1-1.3 1.1-1.5 1.6-.3 1 .1 1.8.7 3.2.6 1.3.7 2.2.4 3.3 0 .1-.2.7-.4 1l-.3.6c-.1.1-.2.2-.2.3-.4.7-1.5 1.3-2.4 1.8-.1.1-.4.2-.4.2-.2 0-.4-.4-.8-.5-.1 0-.3-.1-.4-.1-.2 0-.5.1-.6.1-.1 0-.1-.1-.2-.2s-.5-.3-.8-.4c-.9-.2-1.4.1-1.6.1-.1 0-.5-.7-1.5-1-.4-.1-.9-.1-1.4 0-.1 0-.3.2-.4.2-.3-.1-.4-.6-1.4-.9-.2-.1-.6-.1-.8-.1-.1 0-.2.1-.3.1-.1 0-.3-.4-.9-.5-.3-.1-.2-.1-.6 0-.1 0-.2.1-.3.1-.1 0-.1-.2-.2-.2-.3-.4-.6-1-.8-1.4-.1-.2-.3-.5-.3-.7-.3-.9-.3-1.7-.2-2.5.1-.4.1-.4.1-.5 0-.1.3-.6.4-.9.8-1.6 3.2-2.4 3.6-4 .1-.5.1-1.1-.1-1.7-.1-.2-.2-.4-.3-.5l-.2.9c-.1.3-.2.6-.5.9-.5.4-1.4.9-2 1.2-1.3.7-2.4 1.6-3 2.5-.2.4-.6 1-.7 1.4 0 .1-.1.7-.2 1.1 0 .6.1 1.2.2 1.7.2.8.8 2.5.7 2.5v.1h-.1c-.1 0-.3-.2-.5-.3-.3-.1-.8-.3-.9-.3-.9-.2-2.3-.1-3.3.1v.4c.1 1.3 1.4 2.6 2.3 2.9.1.1.3.1.4.2l1.2.3c.2 0 .3.1.5.2-.1.4-.2.9-.2 1.4 0 1 .2 2.2.8 3.3.1.2.2.4.4.6.4.5.8 1.2.9 1.8.1.9.1 1.7.1 2.6 0 .4 0 .8-.2 1.2-.5 1.9-1.6 2.3-1.8 3.2-.2.8.3 2.1.3 2.1 0 .1-.4.3-.6.5-.5.5-.8 1.2-1 1.8-.1.3-.2.5-.2.9v1.4c0 .7.3 1.5.8 2.2.7 1.1 1.6 1.7 2.5 2.1.1.1.3.2.4.2l1.1.3c.1 0 .6.1.9.1 2.8 0 4.7-1.9 5.2-3.9.2-.9.2-2.1-.2-3.2.6-.6 1.1-1.1 1.2-1.8.1-.5.1-.7-.1-1.3-.1-.5-.1-1 0-1.5v-.3l.3-1.2c0-.1.1-.2.1-.2.2-.5.7-1.1 1-1.6.3-.4.5-.8.8-1.2.2-.2.5-.5.8-.6 1.3-.4 2.4-1.4 3-2.2.2-.2.4-.5.5-.8.2-.4.4-.9.5-1.3l1.8.4h.4c1.3-.2 3.2-.8 3.8-2zm-22.3-5h-.1c-.3-.1-.6-.5-.8-.6-.3-.2-.7-.4-1.1-.5-.2-.1-1.1-.1-1.2 0h-.2c-.1.4.4.8.7 1.1.1.1.2.2.3.2.3.2.7.4 1 .5 0 .1-.1.1-.1.2l-.5-.1c-.1 0-.1-.1-.2-.1-.6-.3-1.3-1-1.7-1.9.6-.2 1.4-.3 2-.1.6.1 1.3.5 1.9 1.3zm3.5 4.3c.1 0 .2.1.2.1.2.1.5 0 .5-.3 0-.1 0-.2.1-.2l.8.4c0 .3-.8.7-1.1.7-.2 0-.5-.1-.5-.1-.7-.2-1.1-.9-1-1.6 0-.1.1-.1.1-.2l1.1.5c-.1 0-.3.1-.3.3-.1.1-.1.3.1.4zm-.8 11.4c.3-.7.6-1.4.9-2l1.2-3 .4-1.2.5-2.1v-.3c.1-1 .3-2 .1-3.1-.1-.4-.5-.8-.7-1-.2-.1-.5-.2-.5-.2-.3-.1-1.2-.1-1.6-.2-.3-.1-.5-.1-.8-.5.1 0 .2 0 .6.2l1.8.3c.4.1.9.2 1.2.7.5.8.5 1.6.4 2.3 0 .1-.1 1.6-.2 1.9l-.5 1.8-.4 1.4c-.8 2.1-1.7 4.2-2.7 6.3-.1 0-.1-.1-.2-.1v-.1c0-.1.3-.8.5-1.1zm2 4.3-1.7-.4-1.2-.5v-.2c0-.1.1-.1.2-.1l1.1.4 1.7.4 1.1.2c.1 0 .1.1.1.1l-.1.2zm0 .6-.7 2.7c-.1.3-.7.8-1 .7h-.2c-.6-.2-1-.8-.8-1.3l.7-2.7zm-2.5-.4-.6 2.5v.1c-.2.8.4 1.4 1 1.6.4.1.3.1.9 0 .2 0 .7-.5.8-.7l.7-2.7c.6 0 1.2 0 1.8-.1.2.8.3 1.4.1 2.1-.1.5-.5 1.1-.9 1.5-1.2 1.2-2.6 1.3-3.6 1-1.2-.3-2.6-1.4-2.8-3.3v-1c0-.1 0-.2.2-.6.2-.4.5-.9.9-1.3.5.3 1 .7 1.5.9zm6.2 2.5c-.1.3-.1.5-.1.6-.5 1.8-2.2 3.6-4.8 3.6h-1l-1-.3c-.1 0-.4-.2-.6-.3-.7-.3-1.6-1-2.1-1.9-.6-.9-.8-1.9-.8-2.7v-.7c.1-.4.1-.5.2-.8l.3-.6c.4-1 1.8-2.2 3.2-2.5.1.3.2.7.3 1.1-1 .3-2.1 1.2-2.4 1.9 0 .1-.1.2-.2.3-.1.4-.2.5-.2.8v.6c0 .6.1 1.2.6 1.9.4.6.9 1 1.4 1.3.3.2.8.3 1.1.4 2.3.6 4.4-.7 4.9-2.6.3-1.1.2-2.5-1.1-3.7l.8-.8c1.2 1.3 1.8 3.2 1.5 4.4zm4.5-16.6c-.1.3-.7.8-1.1.8h-.5c-.6-.1-1-.4-1.1-1.3l1 .1c-.1.1-.1.1-.1.2-.1.3.2.5.4.5.2.1.5 0 .5-.3 0-.1 0-.3-.1-.4l1.2.1zm.9-1.1c-.4.2-.6.2-.9.1-.5-.1-1.1-.5-1.5-.6-.5-.1-1.1 0-1.7.4-.3.3-.5.6-.6.9-.4.6-.7 1.4-.9 2.1 0 .1-.1.2-.1.3l-.4 1.7-.3 1.5c-.1.6-.2 1.1-.2 1.7 0 .4-.3 4.3-.5 4.9 0 .1-.1.1-.3.1.2-2.3.3-4.6.7-6.8l.2-1.3.5-1.9c.1-.5 1.2-2.6 1.2-2.7.2-.3.5-.6.8-.9l.2-.2c.4-.3 1.1-.2 1.5-.1l1.7.7c.4 0 .5 0 .6.1zm4.6 1h-.2l-.5-.1v-.2c.5.1 1 .1 1.5 0 .1 0 1.1-.4 1.2-.6.1-.3-1.2-.7-1.3-.7-.4-.1-.8-.2-1.2-.1-.3 0-.8.2-.9.2h-.2v-.1c.8-.4 1.7-.4 2.4-.2.6.1 1.3.5 1.7 1.1-.9.5-1.8.8-2.5.7z" id="WL_UR_55_075_svg__path127" style="fill:#10130f"/><path class="WL_UR_55_075_svg__st3" d="M338.4 305.1c-.6-.1-1.4-.1-2 .1.3.9 1 1.6 1.7 1.9 0 0 .1.1.2.1l.5.1c0-.1.1-.1.1-.2-.3-.1-.7-.3-1-.5-.1-.1-.3-.1-.3-.2-.2-.3-.7-.8-.7-1.1 0-.1.2 0 .2 0 .2-.1 1 0 1.2 0 .4.1.8.3 1.1.5.2.2.5.6.8.6h.1v-.1c-.5-.7-1.2-1.1-1.9-1.2z" id="WL_UR_55_075_svg__path129"/><path class="WL_UR_55_075_svg__st3" d="M359.5 310.5c-.7-.2-1.6-.2-2.4.2v.1h.2c.1 0 .6-.2.9-.2.4 0 .8 0 1.2.1.1 0 1.3.5 1.3.7-.1.3-1 .6-1.2.6-.5.1-1 .1-1.5 0v.2l.5.1h.2c.7.1 1.6-.2 2.4-.9-.3-.4-1-.8-1.6-.9z" id="WL_UR_55_075_svg__path131"/><path class="WL_UR_55_075_svg__st3" d="M342.6 323.2c.1 0 .1.1.2.1 1-2.1 1.9-4.3 2.7-6.3l.4-1.4.5-1.8c.1-.4.2-1.8.2-1.9.1-.7 0-1.6-.4-2.3-.3-.5-.8-.6-1.2-.7l-1.8-.3c-.4-.1-.5-.2-.6-.2.3.4.5.5.8.5.4.1 1.3.1 1.6.2.1 0 .4.1.5.2.3.2.6.5.7 1 .3 1.1.1 2.1-.1 3.1v.3l-.5 2.1-.4 1.2-1.2 3c-.3.7-.6 1.4-.9 2-.2.4-.5 1.1-.5 1.2z" id="WL_UR_55_075_svg__path133"/><path class="WL_UR_55_075_svg__st3" d="M351.9 310.5c-.4-.1-1-.2-1.5.1-.1.1-.2.1-.2.2-.3.3-.6.6-.8.9 0 .1-1.1 2.2-1.2 2.7l-.5 1.9-.2 1.3c-.3 2.2-.5 4.5-.7 6.8.2 0 .2 0 .3-.1.2-.6.4-4.5.5-4.9.1-.6.1-1.1.2-1.7l.3-1.5.4-1.7c0-.1.1-.2.1-.3.2-.7.6-1.4.9-2.1.2-.3.3-.6.6-.9.5-.5 1.2-.5 1.7-.4.4.1 1 .5 1.5.6.3.1.5.1.9-.1-.1 0-.2 0-.6-.1z" id="WL_UR_55_075_svg__path135"/><path class="WL_UR_55_075_svg__st1" d="m344.1 310-1.1-.5c0 .1 0 .2-.1.2-.2.7.3 1.4 1 1.6.1 0 .3.1.5.1.3 0 1.1-.4 1.1-.7l-.8-.4c0 .1-.1.2-.1.2-.1.2-.3.3-.5.3-.1 0-.1 0-.2-.1-.2-.1-.2-.3-.2-.4 0-.2.2-.3.4-.3z" id="WL_UR_55_075_svg__path137"/><path class="WL_UR_55_075_svg__st1" d="M352.3 312.5c-.1.3-.3.3-.5.3-.2-.1-.5-.2-.4-.5 0-.1.1-.1.1-.2l-1-.1c.1.9.6 1.2 1.1 1.3h.5c.4 0 1-.5 1.1-.8l.1-.4-1.2-.1c.2.1.3.4.2.5z" id="WL_UR_55_075_svg__path139"/><path class="WL_UR_55_075_svg__st5" d="M346.5 325.7c1.2 1.2 1.4 2.6 1.1 3.7-.5 1.9-2.6 3.2-4.9 2.6-.3-.1-.9-.3-1.1-.4-.5-.3-1-.7-1.4-1.3-.4-.7-.5-1.4-.6-1.9v-.6c0-.3.1-.4.2-.8 0-.1.1-.2.2-.3.3-.7 1.4-1.6 2.4-1.9-.1-.4-.2-.8-.3-1.1-1.4.3-2.8 1.5-3.2 2.5l-.3.6c-.1.3-.1.4-.2.8v.7c-.1.8.2 1.8.8 2.7.6.9 1.4 1.6 2.1 1.9l.6.3 1 .3h1c2.6 0 4.4-1.8 4.8-3.6 0-.1.1-.3.1-.6.3-1.2-.3-3.1-1.6-4.2z" id="WL_UR_55_075_svg__path141"/><path class="WL_UR_55_075_svg__st3" d="M346.4 326.4c0-.1 0-.1-.1-.1l-1.1-.2-1.7-.4-1.1-.4c-.1 0-.1 0-.2.1v.2l1.2.5 1.7.4 1.3.2z" id="WL_UR_55_075_svg__path143"/><path class="WL_UR_55_075_svg__st3" d="M340.2 327c-.1.3-.2.5-.2.6-.1.3-.1.6 0 1 .2 1.9 1.5 3 2.8 3.3 1.1.3 2.4.2 3.6-1 .4-.4.7-1 .9-1.5.2-.6.1-1.3-.1-2.1-.6.1-1.3.1-1.8.1l-.7 2.7c-.1.2-.6.7-.8.7-.6.1-.5.1-.9 0-.6-.1-1.2-.7-1-1.6v-.1l.6-2.5c-.5-.2-1-.6-1.5-.9-.4.4-.7.8-.9 1.3z" id="WL_UR_55_075_svg__path145"/><path class="WL_UR_55_075_svg__st5" d="M342.3 329.2c-.1.5.3 1.1.8 1.3h.2c.4.1 1-.4 1-.7l.7-2.7-2.1-.5z" id="WL_UR_55_075_svg__path147"/></g></g></svg>