<svg xmlns="http://www.w3.org/2000/svg" id="Hintergrundfarbe" viewBox="0 0 212.6 212.6">
  <defs>
    
  </defs>
  <path d="M212.6,212.6H0V0h212.6v212.6Z" fill="rgb(74, 172, 36)"/>
  <path d="M66.04,89.92l-4.97-4.87,5.12-.12M57.69,53.72l-1.91,1.91.45.45,1.6-1.6.3-.3-.3-.3-.15-.15ZM56.08,52.63l-.9,1.12-1.01,1.26.43.35.07.05,1.91-2.38-.5-.4ZM147.62,64.25l-52.74,53.66-24.08-23.41-.08.02-2.18-2.14c.85.08,1.59.06,1.59.06l4.78-.04c-.16-1.91-4.13-4.13-4.13-4.13v-3.66l1.43-.95c.23-2.43.21-10.35.18-14.46-3.98,0-5.42-1.42-5.52-1.52-4.88,2.05-7.55,2.23-8.97,1.86,0,.01-.03.08-.07.18-.55,1.39-4.13,10.45-5.01,12.36-.95,2.06,1.75,2.06,1.75,2.06,0,0-.48,1.1-1.01,2.41l-15.63,15.63L.01,64.25,37.94,26.32l20.09,20.1h0L94.22,10.35l53.4,53.9ZM55.82,67.77s0-.02,0-.03c-.64-3.1,0-5.73.95-7.73-1.53.24-2.74.05-3.63-.56-.14-.1-.29-.17-.41-.29-1.45-1.39-1.09-3.48-1.06-3.61-1.64,2.36-3.44,5.6-3.44,8.1,0,2.08,1.05,3.11,2.09,3.62,1.02.5,2.04.5,2.04.5h3.46ZM79.53,60.94c0-1.11-1.59-1.75-1.59-1.75v-3.02h-2.06v4.45h-2.86l-.63-5.56c-.25.01-3.85.12-5.04-1.74.98,1.53,4.5,1.06,4.64,1.04l-.24-.42s.47-1.27.95-2.23c.48-.95.48-5.08.32-6.35-.14-1.17-1.91-2.73-3.8-2.97l.3,3.41-.94-3.44c-2,.07-3.69,1.64-4.46,4.28-.8,2.7-1.43,3.81-1.43,3.81l3.34,1.91-3.97,1.43s.48-1.75-2.54-3.18c-.62-.3-1.17-.41-1.67-.41-.29,0-.56.02-.81.09l.23-.18-.56-.53-1.95-1.83-1.59,1.59,2.22,1.91c-.52.47-.92.98-1.27,1.27-.38.31-1.37,1.48-2.44,3.02.01.09.26,1.98,1.5,3.16.05.05.12.1.19.14.79.56,2.29.71,3.73.53.24-.45.5-.86.75-1.23,1.01-1.5,1.98-2.35,2.01-2.37-.02.02-1.06,1.19-2.01,3.11-1.08,2.18-2.05,5.36-1.3,9.01,0,.02.49.59,1.1.86.06.03.12.05.19.08,1.05.36,3.49.5,8.78-1.72.12-.13.87-1.05.87-2.25,0-.16-.01-.32-.04-.48-.13-.7-.47-1.2-1-1.49-.97-.53-2.59-.37-4.68.46,2.31-.92,3.83-1.66,4.98-1.02.7.39,1.16,1.06,1.32,1.93.25,1.35-.4,2.49-.78,3.01l.03-.03s1.33,1.32,5.06,1.33c0-1.16-.02-1.9-.02-1.9h2.86v21.45h2.38v-23.84s1.91-2.23,1.91-3.34Z" fill="rgb(146, 198, 105)"/>
  <path d="M167.1,59.31l36.28-7.86,9.08,42.15-36.28,7.86-9.09-42.15h0Z" fill="rgb(255, 255, 255)"/>
  <polygon points="185.23 55.37 203.38 51.46 212.46 93.61 194.32 97.52 185.23 55.37 185.23 55.37" fill="rgb(227, 18, 26)"/>
  <path d="M192.36,88.47v.02s2.07,3.24,2.07,3.24l3.47-.75-2.35,2.46,1.79,3.15-3.5-1.32h0s-1.48-6.81-1.48-6.81h0ZM190.63,80.46h0l1.48,6.8h0s3.5,1.32,3.5,1.32l-1.79-3.15,2.35-2.47-3.47.75-2.06-3.26h0ZM188.91,72.45h0l1.48,6.79h0s3.49,1.32,3.49,1.32l-1.79-3.15,2.35-2.47-3.47.75-2.06-3.24h0ZM185.45,56.42h0l1.48,6.8h0s3.49,1.32,3.49,1.32l-1.78-3.15,2.35-2.47-3.47.76-2.06-3.25h0ZM187.17,64.43h0l1.48,6.8h.01s3.49,1.33,3.49,1.33l-1.79-3.15,2.35-2.46-3.47.75-2.06-3.25h0ZM202.91,87.84h0s3.51,1.32,3.51,1.32l-1.79-3.15,2.34-2.46-3.47.75-2.07-3.24h0s-.53,3.8-.53,3.8l-3.47.75,3.16,1.27-.31,3.61,2.64-2.65h0ZM201.19,79.89h0s3.51,1.32,3.51,1.32l-1.79-3.16,2.35-2.46-3.47.75-2.07-3.25h0s-.53,3.8-.53,3.8l-3.47.75,3.16,1.27-.32,3.6,2.64-2.64h0ZM199.43,71.81h0s3.51,1.32,3.51,1.32l-1.79-3.14,2.34-2.46-3.46.75-2.07-3.25h0s-.54,3.8-.54,3.8l-3.48.76,3.16,1.27-.32,3.6,2.64-2.64h0ZM197.69,63.82h0v.02s3.52,1.31,3.52,1.31l-1.79-3.14,2.34-2.47-3.47.74-2.07-3.24h0s-.54,3.8-.54,3.8l-3.47.76,3.16,1.27-.31,3.61,2.64-2.66h0Z" fill="rgb(255, 255, 255)"/>
  <path d="M192.36,88.45h0l1.48,6.8h0s-2.64,2.65-2.64,2.65l.33-3.61-3.16-1.27,3.47-.75.53-3.81v-.02h0ZM190.64,80.47h0s-.53,3.82-.53,3.82l-3.48.76,3.16,1.27-.32,3.61,2.64-2.65h0s-1.48-6.81-1.48-6.81h0ZM188.91,72.46h0s-.53,3.81-.53,3.81l-3.47.75,3.16,1.27-.32,3.61,2.64-2.65h0s-1.48-6.79-1.48-6.79h0ZM185.46,56.41h0s-.53,3.82-.53,3.82l-3.47.75,3.17,1.27-.33,3.61,2.64-2.65h0s-1.48-6.81-1.48-6.81h0ZM187.17,64.42h0s-.53,3.82-.53,3.82l-3.48.76,3.16,1.27-.32,3.61,2.64-2.65h0s-1.48-6.81-1.48-6.81h0ZM182.47,92.29l3.51,1.31-1.79-3.15,2.35-2.46-3.47.75-2.07-3.25v.02s-.54,3.81-.54,3.81l-3.47.76,3.16,1.27-.32,3.61,2.64-2.65h0ZM180.74,84.34l3.51,1.31-1.79-3.15,2.34-2.47-3.47.75-2.07-3.24h0s-.54,3.82-.54,3.82l-3.47.75,3.16,1.27-.31,3.61,2.65-2.66h0ZM178.99,76.26l3.51,1.31-1.79-3.14,2.34-2.47-3.46.75-2.08-3.24h0s-.54,3.82-.54,3.82l-3.47.76,3.16,1.27-.32,3.6,2.64-2.65h0ZM177.25,68.27l3.51,1.32-1.79-3.16,2.35-2.47-3.47.76-2.07-3.24h0s-.54,3.82-.54,3.82l-3.47.77,3.16,1.27-.32,3.6,2.64-2.64v-.02h0Z" fill="rgb(227, 18, 26)"/>
  <path d="M45.72,102.98h79.55l-5.34,24.79-55.54,84.73H31.13l59.31-88.8h-48.95l4.24-20.71ZM177.15,212.6h-26.03c-15.32-4.55-23.66-17.71-23.66-37.91,0-37.66,17.57-73.59,52.25-73.59,16.09,0,27.33,6.52,32.88,18.72v51.39c-5.77,20.49-17.75,36.28-35.44,41.4ZM189.91,134.99c0-9.26-3.45-13.96-9.73-14.12-19.14,0-26.04,48.01-26.04,59.78,0,9.57,3.45,13.96,10.67,13.96,19.14,0,25.1-48.01,25.1-59.62Z" fill="rgb(255, 255, 255)"/>
  <path d="M7.8,8.32h4.75l2.67,11.94h.05l2.72-11.94h4.56l-4.94,16.66h-4.87L7.8,8.32ZM24.08,7.08h4.3v3.58h-4.3v-3.58ZM24.08,12.55h4.3v12.44h-4.3v-12.44ZM41.84,22.24c0,1,.07,2.01.14,2.75h-3.82c-.05-.57-.14-1.15-.14-1.72-1.24,1.38-2.22,2.01-3.72,2.01-2.2,0-3.77-1.58-3.77-3.96,0-2.77,2.08-4.25,6.4-4.25h1.1v-.38c0-.79-.64-1.69-2.34-1.69-1.34,0-2.67.6-3.58,1.17l-.14-3.08c1.03-.38,2.58-.81,4.65-.81,4.37,0,5.23,2.05,5.23,4.61v5.37ZM38.02,18.97h-.5c-1.91,0-3.17.6-3.17,2.05,0,1.1.6,1.53,1.48,1.53,1.98,0,2.2-2.01,2.2-3.17v-.41ZM44.53,8.32h9.83v3.29h-5.44v3.39h5.2v3.29h-5.2v6.68h-4.39V8.32ZM56.16,16.15c0-1.77-.07-3.03-.14-3.6h4.03c.07.5.1,1.38.1,2.08h.05c.36-.98,1.12-2.36,3.17-2.36.31,0,.45.02.72.07v3.75c-.19-.07-.79-.14-1.29-.14-1.38,0-2.34,1.22-2.34,2.86v6.18h-4.3v-8.83ZM76.33,22.24c0,1,.07,2.01.14,2.75h-3.82c-.05-.57-.14-1.15-.14-1.72-1.24,1.38-2.22,2.01-3.72,2.01-2.2,0-3.77-1.58-3.77-3.96,0-2.77,2.08-4.25,6.4-4.25h1.1v-.38c0-.79-.64-1.69-2.34-1.69-1.34,0-2.67.6-3.58,1.17l-.14-3.08c1.03-.38,2.58-.81,4.65-.81,4.37,0,5.23,2.05,5.23,4.61v5.37ZM72.51,18.97h-.5c-1.91,0-3.17.6-3.17,2.05,0,1.1.6,1.53,1.48,1.53,1.98,0,2.2-2.01,2.2-3.17v-.41ZM78.72,15.08c0-.93-.07-1.96-.14-2.53h4.03c.07.5.1,1.38.1,2.08h.05c.24-.67,1.07-2.36,3.51-2.36,2.12,0,3.77,1.27,3.77,4.01v8.71h-4.3v-7.47c0-1.19-.36-1.77-1.17-1.77-1.07,0-1.55,1.12-1.55,2.41v6.83h-4.3v-9.91ZM101.42,15.98c-.45-.19-1.17-.52-2.1-.52-1.58,0-2.82.98-2.82,3.32,0,1.86.64,3.29,2.75,3.29,1.05,0,2.12-.41,2.39-.55l.12,3.1c-.64.31-2.46.64-3.46.64-4.54,0-6.18-3.1-6.18-6.49s1.65-6.52,6.18-6.52c1.81,0,2.84.41,3.34.6l-.21,3.13ZM103.66,7.08h4.3v3.58h-4.3v-3.58ZM103.66,12.55h4.3v12.44h-4.3v-12.44ZM110.99,26.03c.79.45,2,1.15,3.84,1.15,2.51,0,3.39-1.38,3.39-3.72v-.93h-.05c-.57,1.6-1.81,2.46-3.32,2.46-3.39,0-4.7-2.75-4.7-6.64,0-3.2,1.7-6.09,4.63-6.09,1.86,0,2.84,1.12,3.39,2.32h.05c0-.6.07-1.41.17-2.03h4.03c-.07.74-.14,1.69-.14,2.91v7.97c0,4.37-1.89,6.85-6.75,6.85-1.86,0-4.03-.55-4.68-.84l.14-3.41ZM116.22,15.36c-1.24,0-1.58,1.34-1.58,3.15,0,2.12.29,3.56,1.67,3.56s1.67-1.38,1.67-3.39-.55-3.32-1.77-3.32ZM128.37,19.95c.12,2.01,1.5,2.6,3.1,2.6,1.17,0,2.58-.53,3.63-.98l.09,2.98c-1.03.33-2.6.69-4.34.72-5.04.02-6.49-3.37-6.49-6.56,0-3.41,2.03-6.44,5.78-6.44s5.73,3.08,5.73,6.47v1.22h-7.5ZM131.95,17.7v-.36c0-1.67-.45-2.46-1.74-2.46-1.22,0-1.93,1.1-1.93,2.82h3.68ZM137.94,15.08c0-.93-.07-1.96-.14-2.53h4.03c.07.5.1,1.38.1,2.08h.05c.24-.67,1.07-2.36,3.51-2.36,2.12,0,3.77,1.27,3.77,4.01v8.71h-4.3v-7.47c0-1.19-.36-1.77-1.17-1.77-1.07,0-1.55,1.12-1.55,2.41v6.83h-4.3v-9.91ZM162.53,22.24c0,1,.07,2.01.14,2.75h-3.82c-.05-.57-.14-1.15-.14-1.72-1.24,1.38-2.22,2.01-3.72,2.01-2.2,0-3.77-1.58-3.77-3.96,0-2.77,2.08-4.25,6.4-4.25h1.1v-.38c0-.79-.64-1.69-2.34-1.69-1.34,0-2.67.6-3.58,1.17l-.14-3.08c1.03-.38,2.58-.81,4.65-.81,4.37,0,5.23,2.05,5.23,4.61v5.37ZM158.71,18.97h-.5c-1.91,0-3.17.6-3.17,2.05,0,1.1.6,1.53,1.48,1.53,1.98,0,2.2-2.01,2.2-3.17v-.41ZM8.81,203.76v-1.15l4.82,1.02v-2.25l.9.2v3.39l-5.72-1.21ZM13.88,198.21v.02c.48.38.75.75.75,1.36,0,.76-.43,1.3-1.21,1.3-1.39,0-1.5-1.56-1.5-2.59v-.39c-.12-.03-.24-.03-.36-.03-.43,0-.55.46-.55.84,0,.48.12.95.33,1.39l-.88-.16c-.16-.47-.25-.94-.25-1.44,0-.84.31-1.64,1.3-1.64.57,0,2.22.42,3.02.52v.93l-.65-.11ZM13.82,199.29c0-.82-.57-1.07-1.25-1.25v.39c0,.53.09,1.42.8,1.42.3,0,.44-.28.44-.56ZM9.9,189.96c-.17.34-.29.77-.29,1.19s.16.96.66.96c.92,0,.86-1.95,2.45-1.95,1.4,0,1.91,1.1,1.91,2.35,0,.55-.13,1.12-.32,1.63l-.98-.29c.21-.44.39-.91.39-1.4,0-.55-.28-1.09-.89-1.09-1.03,0-.87,1.95-2.39,1.95-1.21,0-1.73-1.03-1.73-2.13,0-.5.07-1.02.25-1.48l.94.27ZM13.92,185.53c.25.05.48.09.61.11v1.07l-.41-.07v.02c.28.3.51.72.51,1.2,0,.83-.52,1.38-1.35,1.38-.32,0-.66-.08-.92-.14l-2.05-.44v-1.1l1.99.41c.29.06.57.12.89.12.35,0,.59-.25.59-.6,0-.76-.71-1.04-1.35-1.18l-2.12-.45v-1.1l3.62.78ZM8.49,183.18v-1.1l1.05.23v1.1l-1.05-.23ZM10.31,183.58v-1.1l4.22.9v1.1l-4.22-.9ZM11.21,178.99c-.11.29-.2.59-.2.9,0,.33.09.74.43.74.53,0,.73-1.43,1.76-1.43,1.1,0,1.43.96,1.43,1.9,0,.44-.07.89-.25,1.29l-.88-.24c.17-.31.33-.62.33-1.05,0-.37-.12-.75-.47-.75-.68,0-.75,1.43-1.8,1.43-.99,0-1.34-.96-1.34-1.83,0-.4.07-.81.17-1.2l.83.24ZM11.21,175.35c-.11.29-.2.59-.2.9,0,.33.09.74.43.74.53,0,.73-1.43,1.76-1.43,1.1,0,1.43.96,1.43,1.9,0,.44-.07.89-.25,1.29l-.88-.24c.17-.31.33-.62.33-1.05,0-.37-.12-.75-.47-.75-.68,0-.75,1.43-1.8,1.43-.99,0-1.34-.96-1.34-1.83,0-.4.07-.81.17-1.2l.83.24ZM12.76,173.78c.78,0,1.07-.42,1.07-1.17,0-.45-.12-.89-.3-1.3l.87.14c.13.43.24.89.24,1.34,0,1.21-.59,2.03-1.85,2.03s-2.57-1.02-2.57-2.4c0-1.04.53-1.73,1.61-1.73.32,0,.63.04.94.11v2.98ZM12,171.77c-.1-.02-.19-.02-.29-.02-.45,0-.71.24-.71.7,0,.68.41.98.99,1.19v-1.86ZM9.73,165.63l-1.2,1.06v-1.09l1.2-.66v.7ZM13.88,165.4v.02c.48.38.75.75.75,1.36,0,.76-.43,1.3-1.21,1.3-1.39,0-1.5-1.56-1.5-2.59v-.39c-.12-.03-.24-.03-.36-.03-.43,0-.55.46-.55.84,0,.48.12.95.33,1.39l-.88-.16c-.16-.47-.25-.94-.25-1.44,0-.84.31-1.64,1.3-1.64.57,0,2.22.42,3.02.52v.93l-.65-.11ZM13.82,166.48c0-.82-.57-1.07-1.25-1.25v.39c0,.53.09,1.42.8,1.42.3,0,.44-.28.44-.56ZM10.86,160.5c-.21-.04-.37-.07-.55-.09v-1.04l.56.12v-.02c-.45-.32-.66-.71-.66-1.27,0-1.05.71-1.55,1.71-1.55,1.32,0,2.71.73,2.71,2.2,0,.48-.16.98-.75,1.16v.02l2.38.48v1.1l-5.4-1.12ZM11.06,158.57c0,.75.98,1.16,1.72,1.16.54,0,.99-.19.99-.72,0-.92-1.15-1.21-1.81-1.21-.52,0-.9.26-.9.77ZM8.49,154.93v-1.1l1.05.23v1.1l-1.05-.23ZM10.31,155.33v-1.1l4.22.9v1.1l-4.22-.9ZM12.76,152.82c.78,0,1.07-.42,1.07-1.17,0-.45-.12-.89-.3-1.3l.87.14c.13.43.24.89.24,1.34,0,1.21-.59,2.03-1.85,2.03s-2.57-1.02-2.57-2.4c0-1.04.53-1.73,1.61-1.73.32,0,.63.04.94.11v2.98ZM12,150.81c-.1-.02-.19-.02-.29-.02-.45,0-.71.24-.71.7,0,.68.41.98.99,1.19v-1.86ZM8.38,144.17l5.22,1.14c.36.07.72.13.93.16v1.02l-.62-.11v.02c.46.33.72.74.72,1.38,0,1-.84,1.45-1.75,1.45-1.26,0-2.66-.69-2.66-2.12,0-.54.2-.96.6-1.3l-2.43-.53v-1.1ZM12.77,148.08c.43,0,1-.13,1-.67,0-.8-.94-1.28-1.71-1.28-.49,0-1,.24-1,.8,0,.79,1.08,1.16,1.71,1.16Z" fill="rgb(26, 24, 23)"/>
</svg>