<svg version="1.1" id="WL_CH_02_d_075_svg__LOGO_2" x="0" y="0" xml:space="preserve" xmlns="http://www.w3.org/2000/svg" viewBox="0 0 212.6 212.6"><style type="text/css" id="style2">.WL_CH_02_d_075_svg__st0{fill:#52ae32}.WL_CH_02_d_075_svg__st1{fill:#fff}</style><g id="WL_CH_02_d_075_svg__g104" transform="translate(-190.1 -182)"><path class="WL_CH_02_d_075_svg__st0" d="M370.9 226.5h-46c-3.1 39.4-42.1 63.6-72.8 84.6v.5h58.7l-6.4 31.5H190.1v51.5h212.6V182h-17.5zm3.1 130.2-.5 2.3c.3-.3.7-.5 1.2-.5.8 0 1.4.5 1.4 1.4 0 .3-.1.7-.1.9l-.4 2h-1.1l.4-2c.1-.3.1-.6.1-.9 0-.4-.2-.6-.6-.6-.8 0-1 .7-1.2 1.3l-.5 2.1h-1.1l1.3-6.1h1.1zm-10.4 5c.4.2.9.4 1.4.4.5 0 1.1-.3 1.1-.9 0-1-1.9-.9-1.9-2.4 0-1.2 1-1.7 2.1-1.7.5 0 1 .1 1.5.3l-.3.9c-.3-.2-.8-.3-1.2-.3-.4 0-1 .2-1 .7 0 .9 1.9.9 1.9 2.4 0 1.4-1.1 1.9-2.3 1.9-.5 0-1.1-.1-1.6-.3zm-11.7-2.4c0-.3.1-.5.1-.6h1.1l-.1.4c.3-.3.7-.5 1.2-.5.8 0 1.4.5 1.4 1.4 0 .3-.1.7-.1.9l-.4 2H354l.4-2c.1-.3.1-.6.1-.9 0-.4-.2-.6-.6-.6-.8 0-1 .7-1.2 1.3l-.5 2.1h-1.1zm-12.8-.7c1 0 1.7.5 1.7 1.6 0 .3 0 .6-.1.9h-3c0 .8.4 1.1 1.2 1.1.5 0 .9-.1 1.3-.3l-.1.9c-.4.1-.9.2-1.3.2-1.2 0-2-.6-2-1.8-.1-1.4.9-2.6 2.3-2.6zm-11.8.7c0-.3.1-.5.1-.6h1.1l-.1.4c.3-.3.7-.5 1.2-.5.8 0 1.4.5 1.4 1.4 0 .3-.1.7-.1.9l-.4 2h-1.1l.4-2c.1-.3.1-.6.1-.9 0-.4-.2-.6-.6-.6-.8 0-1 .7-1.2 1.3l-.5 2.1h-1.1zm-97.9 13.6h-3.6v13.3h-4.5v-13.3h-3.6v-3.4h11.6v3.4zm8.1 4.3c-.2-.1-.8-.1-1.3-.1-1.4 0-2.3 1.2-2.3 2.9v6.2h-4.3v-8.8c0-1.8-.1-3-.1-3.6h4c.1.5.1 1.4.1 2.1.4-1 1.1-2.4 3.2-2.4.3 0 .5 0 .7.1zm8.6 9c0-.6-.1-1.1-.1-1.7-1.2 1.4-2.2 2-3.7 2-2.2 0-3.8-1.6-3.8-4 0-2.8 2.1-4.2 6.4-4.2h1.1v-.4c0-.8-.6-1.7-2.3-1.7-1.3 0-2.7.6-3.6 1.2l-.1-3.1c1-.4 2.6-.8 4.7-.8 4.4 0 5.2 2.1 5.2 4.6v5.4c0 1 .1 2 .1 2.7zm17.4 0h-4.3v-7.5c0-1.2-.4-1.8-1.2-1.8-1.1 0-1.6 1.1-1.6 2.4v6.8h-4.3v-9.9c0-.9-.1-2-.1-2.5h4c.1.5.1 1.4.1 2.1.2-.7 1.1-2.4 3.5-2.4 2.1 0 3.8 1.3 3.8 4v8.8zm5.8.2c-1.4 0-3.1-.3-3.8-.6l.1-3.3c.7.3 1.7.9 3.2.9 1.2 0 1.8-.3 1.8-.9 0-.4-.3-.7-1.4-1.1l-1.3-.5c-2-.7-2.6-1.9-2.6-3.5 0-2.2 1.4-4.1 5.2-4.1 1.3 0 2.6.3 3.5.6l-.1 3.1c-.8-.4-2-.8-3.1-.8-.8 0-1.5.2-1.5.9 0 .4.4.7 1.4 1.1l1.4.5c1.6.6 2.5 1.3 2.5 3.5 0 2.7-1.6 4.2-5.3 4.2zm17.9 0c-2 0-3.6-.4-4.4-.6l.3-3.7c.5.3 2.2 1 3.8 1 1.7 0 2.3-.7 2.3-1.8s-.7-1.4-2-1.9l-1-.4c-2.7-1.1-3.6-2.6-3.6-4.9 0-3.2 2.5-4.9 6.1-4.9 1.3 0 2.8.1 4.2.7l-.2 3.3c-.8-.4-2.1-.8-3.4-.8-1.3 0-2.1.5-2.1 1.6 0 .9.4 1.2 1.9 1.9l2 .9c1.5.7 2.8 1.7 2.8 4.2-.2 3.6-2.8 5.4-6.7 5.4zm23.9-.2h-4.6l-1.7-8.9-1.8 8.9h-4.7l-3.3-12.4h4.4l1.6 8.6 1.6-8.6h4.9l1.5 8.6 1.5-8.6h4.1zm3.4-29h1.1l.2 4.4 1.9-4.4h1.5v4.4l2-4.4h1.2l-2.7 5.7h-1.4l-.1-4.6-2 4.6h-1.4zm5.8 29H316v-12.4h4.3zm0-14.4H316v-3.6h4.3zm4.3-11.5h.4v-.4c0-.4-.5-.5-.8-.5-.5 0-.9.1-1.4.3l.2-.9c.5-.2.9-.3 1.4-.3.8 0 1.6.3 1.6 1.3 0 .6-.4 2.2-.5 3h-.9l.1-.6c-.4.5-.8.7-1.4.7-.8 0-1.3-.4-1.3-1.2 0-1.3 1.6-1.4 2.6-1.4zm1.7 26.1c-1.4 0-3.1-.3-3.8-.6l.1-3.3c.7.3 1.7.9 3.2.9 1.2 0 1.8-.3 1.8-.9 0-.4-.3-.7-1.4-1.1l-1.3-.5c-2-.7-2.6-1.9-2.6-3.5 0-2.2 1.4-4.1 5.2-4.1 1.3 0 2.6.3 3.5.6l-.1 3.1c-.8-.4-2-.8-3.1-.8-.8 0-1.5.2-1.5.9 0 .4.4.7 1.4 1.1l1.4.5c1.6.6 2.5 1.3 2.5 3.5 0 2.7-1.6 4.2-5.3 4.2zm5.4-25.2c0-1.3.7-2.7 2.1-2.7.5 0 1 .2 1.3.6l.5-2.4h1.1l-1.1 5.2c-.1.4-.1.7-.2.9h-1l.1-.6c-.3.5-.7.7-1.4.7-.9.1-1.4-.8-1.4-1.7zm5.2 25.2c-1.4 0-3.1-.3-3.8-.6l.1-3.3c.7.3 1.7.9 3.2.9 1.2 0 1.8-.3 1.8-.9 0-.4-.3-.7-1.4-1.1l-1.3-.5c-2-.7-2.6-1.9-2.6-3.5 0-2.2 1.4-4.1 5.2-4.1 1.3 0 2.6.3 3.5.6l-.1 3.1c-.8-.4-2-.8-3.1-.8-.8 0-1.5.2-1.5.9 0 .4.4.7 1.4 1.1l1.4.5c1.6.6 2.5 1.3 2.5 3.5 0 2.7-1.6 4.2-5.3 4.2zm5.7-25.4-.4 1.9h-1.1l.8-3.6c0-.2.1-.4.1-.6h1l-.1.8c.2-.5.7-.9 1.2-.9h.4l-.2 1.1c-.1 0-.3-.1-.4-.1-.8 0-1.2.7-1.3 1.4zm1.7 1.9 1.3-6.1h1.1l-1.3 6.1zm2.3-1.1c0-1.4 1.6-1.5 2.6-1.5h.4v-.4c0-.4-.5-.5-.8-.5-.5 0-.9.1-1.4.3l.2-.9c.5-.2.9-.3 1.4-.3.8 0 1.6.3 1.6 1.3 0 .6-.4 2.2-.5 3h-.9l.1-.6c-.4.5-.8.7-1.4.7-.8.1-1.3-.4-1.3-1.1zm13.6 11.1h-3.6v13.3h-4.5v-13.3h-3.6v-3.4h11.6v3.4zm-.2-10h-1l.1-.6c-.3.5-.7.7-1.4.7-1 0-1.4-.8-1.4-1.8 0-1.3.7-2.7 2.1-2.7.5 0 1 .2 1.3.6l.5-2.4h1.1l-1.1 5.2c-.1.4-.1.8-.2 1zm8.3 14.3c-.2-.1-.8-.1-1.3-.1-1.4 0-2.3 1.2-2.3 2.9v6.2h-4.3v-8.8c0-1.8-.1-3-.1-3.6h4c.1.5.1 1.4.1 2.1.4-1 1.1-2.4 3.2-2.4.3 0 .5 0 .7.1zm-.2-16c0-1.5 1-2.6 2.5-2.6.4 0 .8.1 1.1.2l-.3.9c-.2-.1-.5-.2-.8-.2-.9 0-1.4.8-1.4 1.6 0 .5.2 1.1.9 1.1.3 0 .6-.1.9-.2l-.1.9c-.3.2-.7.2-1.1.2-1-.1-1.7-.9-1.7-1.9zm8.8 25c0-.6-.1-1.1-.1-1.7-1.2 1.4-2.2 2-3.7 2-2.2 0-3.8-1.6-3.8-4 0-2.8 2.1-4.2 6.4-4.2h1.1v-.4c0-.8-.6-1.7-2.3-1.7-1.3 0-2.7.6-3.6 1.2l-.1-3.1c1-.4 2.6-.8 4.7-.8 4.4 0 5.2 2.1 5.2 4.6v5.4c0 1 .1 2 .1 2.7zm3.6-23.3-.2-3.2-1.5 3.2h-1.2l-.6-4.2h1.1l.3 3.2 1.5-3.2h1.2l.2 3.2 1.6-3.2h1.1l-2.3 4.2zm7 23.3h-4.3v-12.4h4.3zm0-14.4h-4.3v-3.6h4.3zm7 14.4h-4.3v-17.9h4.3zm-3.1-27.5h3.3l-.2.9-2.5 2.4h2.1l-.2.9h-3.5l.2-.9 2.6-2.5h-1.9zm-1.7-1.9h1.1l-.2 1h-1.1zm-.4 1.9h1.1l-.9 4.2h-1.1zm-1.2 1.5c0 .3 0 .6-.1.9h-3c0 .8.4 1.1 1.2 1.1.5 0 .9-.1 1.3-.3l-.1.9c-.4.1-.9.2-1.3.2-1.2 0-2-.6-2-1.8 0-1.3 1-2.6 2.4-2.6.9 0 1.6.5 1.6 1.6z" id="WL_CH_02_d_075_svg__path4"/><path class="WL_CH_02_d_075_svg__st0" d="M242.3 382.2c0 1.1.6 1.5 1.5 1.5 2 0 2.2-2 2.2-3.2v-.4h-.5c-2 0-3.2.6-3.2 2.1z" id="WL_CH_02_d_075_svg__path6"/><path class="WL_CH_02_d_075_svg__st0" d="M323.6 362.2c.8 0 1.1-.6 1.2-1.2h-.4c-.5 0-1.4.1-1.4.8.1.2.3.4.6.4z" id="WL_CH_02_d_075_svg__path8"/><path class="WL_CH_02_d_075_svg__st0" d="M333.6 362.1c.8 0 1.3-.9 1.3-1.7 0-.5-.2-1-.8-1-.8 0-1.2 1.1-1.2 1.7 0 .4.1 1 .7 1z" id="WL_CH_02_d_075_svg__path10"/><path class="WL_CH_02_d_075_svg__st0" d="M280.7 230.2c0-16.7-10.5-23.6-23.4-23.6-13.1 0-28.9 5.7-40.3 12.2l4.2-36.7h-31.1v132c63-44.6 90.6-63.6 90.6-83.9z" id="WL_CH_02_d_075_svg__path12"/><path class="WL_CH_02_d_075_svg__st0" d="M325.1 221.4c0 1.7-.1 3.4-.2 5l14-44.3h-35.3c12.6 7.3 21.5 20 21.5 39.3z" id="WL_CH_02_d_075_svg__path14"/><path class="WL_CH_02_d_075_svg__st0" d="M339.7 360.1c0-.5-.2-.7-.7-.7-.7 0-1 .4-1.2 1h1.9v-.3z" id="WL_CH_02_d_075_svg__path16"/><path class="WL_CH_02_d_075_svg__st0" d="M349.4 360.9h-.4c-.5 0-1.4.1-1.4.8 0 .3.3.4.6.4.8.1 1.1-.5 1.2-1.2z" id="WL_CH_02_d_075_svg__path18"/><path class="WL_CH_02_d_075_svg__st0" d="M385.1 360.4h1.9v-.3c0-.5-.2-.7-.7-.7-.6 0-.9.4-1.2 1z" id="WL_CH_02_d_075_svg__path20"/><path class="WL_CH_02_d_075_svg__st0" d="M373.1 382.2c0 1.1.6 1.5 1.5 1.5 2 0 2.2-2 2.2-3.2v-.4h-.5c-1.9 0-3.2.6-3.2 2.1z" id="WL_CH_02_d_075_svg__path22"/><path class="WL_CH_02_d_075_svg__st0" d="M358.6 359.4c-.8 0-1.2 1.1-1.2 1.7 0 .4.1 1 .7 1 .8 0 1.3-.9 1.3-1.7 0-.5-.3-1-.8-1z" id="WL_CH_02_d_075_svg__path24"/><path class="WL_CH_02_d_075_svg__st1" d="M310.8 311.6h-58.7v-.5c30.7-21.1 69.7-45.2 72.8-84.6v-.1c.1-1.6.2-3.3.2-5 0-19.3-8.9-31.9-21.5-39.3h-82.4l-4.2 36.7c11.5-6.4 27.2-12.2 40.3-12.2 12.9 0 23.4 6.9 23.4 23.6 0 20.3-27.6 39.3-90.6 83.8v29.2h114.3z" id="WL_CH_02_d_075_svg__path26"/><path class="WL_CH_02_d_075_svg__st1" id="WL_CH_02_d_075_svg__polygon28" d="M190.1 314v.2z"/><path id="WL_CH_02_d_075_svg__polygon30" d="M318.4 362.9h1.4l2.8-5.7h-1.2l-2 4.3h-.1v-4.3h-1.5l-1.9 4.3-.2-4.3h-1.2l.4 5.7h1.4l2-4.6z"/><path d="M323.3 363c.6 0 1-.3 1.4-.7l-.1.6h.9c.1-.8.5-2.4.5-3 0-1-.8-1.3-1.6-1.3-.5 0-1 .1-1.4.3l-.2.9c.4-.2.9-.3 1.4-.3.4 0 .8.1.8.5v.4h-.4c-1 0-2.6.1-2.6 1.5 0 .6.6 1.1 1.3 1.1zm1.2-2.1h.4c-.2.7-.4 1.2-1.2 1.2-.3 0-.6-.1-.6-.4 0-.7.9-.8 1.4-.8z" id="WL_CH_02_d_075_svg__path32"/><path d="M328.1 360.8c.1-.6.4-1.3 1.2-1.3.4 0 .6.2.6.6 0 .3-.1.6-.1.9l-.4 2h1.1l.4-2c.1-.3.1-.6.1-.9 0-.8-.5-1.4-1.4-1.4-.5 0-.9.2-1.2.5l.1-.4h-1.1c0 .1-.1.4-.1.6l-.8 3.6h1.1z" id="WL_CH_02_d_075_svg__path34"/><path d="m334.6 362.3-.1.6h1c0-.2.1-.6.2-.9l1.1-5.2h-1.1l-.5 2.4c-.3-.4-.8-.6-1.3-.6-1.4 0-2.1 1.4-2.1 2.7 0 .9.4 1.8 1.4 1.8.6-.1 1-.4 1.4-.8zm-.6-2.9c.6 0 .8.5.8 1 0 .8-.5 1.7-1.3 1.7-.5 0-.7-.6-.7-1 .1-.6.4-1.7 1.2-1.7z" id="WL_CH_02_d_075_svg__path36"/><path d="M338.7 363c.5 0 .9-.1 1.3-.2l.1-.9c-.4.2-.8.3-1.3.3-.8 0-1.2-.3-1.2-1.1h3c.1-.3.1-.6.1-.9 0-1.1-.7-1.6-1.7-1.6-1.4 0-2.4 1.3-2.4 2.6.1 1.2.9 1.8 2.1 1.8zm.3-3.6c.5 0 .7.3.7.7v.3h-1.9c.3-.6.6-1 1.2-1z" id="WL_CH_02_d_075_svg__path38"/><path d="M344.5 358.6h-.4c-.5 0-1 .4-1.2.9l.1-.8h-1c0 .2-.1.4-.1.6l-.8 3.6h1.1l.4-1.9c.1-.7.5-1.4 1.3-1.4.1 0 .3 0 .4.1z" id="WL_CH_02_d_075_svg__path40"/><path id="WL_CH_02_d_075_svg__polygon42" d="m345.4 362.9 1.3-6.2h-1.1l-1.3 6.2z"/><path d="m349.2 362.2-.1.6h.9c.1-.8.5-2.4.5-3 0-1-.8-1.3-1.6-1.3-.5 0-1 .1-1.4.3l-.2.9c.4-.2.9-.3 1.4-.3.4 0 .8.1.8.5v.4h-.4c-1 0-2.6.1-2.6 1.5 0 .8.5 1.2 1.3 1.2.7 0 1.1-.3 1.4-.8zm-1.6-.5c0-.7.9-.8 1.4-.8h.4c-.2.7-.4 1.2-1.2 1.2-.3.1-.6-.1-.6-.4z" id="WL_CH_02_d_075_svg__path44"/><path d="M352.7 360.8c.1-.6.4-1.3 1.2-1.3.4 0 .6.2.6.6 0 .3-.1.6-.1.9l-.4 2h1.1l.4-2c.1-.3.1-.6.1-.9 0-.8-.5-1.4-1.4-1.4-.5 0-.9.2-1.2.5l.1-.4H352c0 .1-.1.4-.1.6l-.8 3.6h1.1z" id="WL_CH_02_d_075_svg__path46"/><path d="m360.2 356.7-.5 2.4c-.3-.4-.8-.6-1.3-.6-1.4 0-2.1 1.4-2.1 2.7 0 .9.4 1.8 1.4 1.8.6 0 1-.3 1.4-.7l-.1.6h1c0-.2.1-.6.2-.9l1.1-5.2h-1.1zm-2.1 5.4c-.5 0-.7-.6-.7-1 0-.6.4-1.7 1.2-1.7.6 0 .8.5.8 1 0 .8-.5 1.7-1.3 1.7z" id="WL_CH_02_d_075_svg__path48"/><path d="M367.3 361.1c0-1.6-1.9-1.5-1.9-2.4 0-.5.5-.7 1-.7.4 0 .9.1 1.2.3l.3-.9c-.5-.2-1-.3-1.5-.3-1.1 0-2.1.5-2.1 1.7 0 1.5 1.9 1.4 1.9 2.4 0 .6-.5.9-1.1.9-.5 0-1-.2-1.4-.4l-.3 1c.5.2 1.1.3 1.6.3 1.2 0 2.3-.5 2.3-1.9z" id="WL_CH_02_d_075_svg__path50"/><path d="m371 362.8.1-.9c-.3.1-.6.2-.9.2-.8 0-.9-.5-.9-1.1 0-.8.5-1.6 1.4-1.6.3 0 .6.1.8.2l.3-.9c-.3-.1-.7-.2-1.1-.2-1.5 0-2.5 1.1-2.5 2.6 0 1.1.7 1.8 1.8 1.8.3.1.6 0 1-.1z" id="WL_CH_02_d_075_svg__path52"/><path d="m372.7 362.9.5-2.1c.1-.6.4-1.3 1.2-1.3.4 0 .6.2.6.6 0 .3-.1.6-.1.9l-.4 2h1.1l.4-2c.1-.3.1-.6.1-.9 0-.8-.5-1.4-1.4-1.4-.5 0-.9.2-1.2.5l.5-2.3h-1.1l-1.3 6.1h1.1z" id="WL_CH_02_d_075_svg__path54"/><path id="WL_CH_02_d_075_svg__polygon56" d="m381.4 361.8-.3-3.1h-1.2l-1.5 3.1-.4-3.1h-1l.5 4.2h1.3l1.5-3.2.2 3.2h1.3l2.3-4.2H383l-1.6 3.1z"/><path d="M383.9 361.1c0 1.3.8 1.8 2 1.8.5 0 .9-.1 1.3-.2l.1-.9c-.4.2-.8.3-1.3.3-.8 0-1.2-.3-1.2-1.1h3c.1-.3.1-.6.1-.9 0-1.1-.7-1.6-1.7-1.6-1.2.1-2.3 1.3-2.3 2.6zm3.1-1v.3h-1.9c.2-.6.5-1 1.2-1 .5 0 .7.2.7.7z" id="WL_CH_02_d_075_svg__path58"/><path id="WL_CH_02_d_075_svg__polygon60" d="M388.4 362.9h1.1l.9-4.2h-1.1z"/><path id="WL_CH_02_d_075_svg__polygon62" d="M389.5 357.9h1.1l.2-1.1h-1.1z"/><path id="WL_CH_02_d_075_svg__polygon64" d="m393.9 362.9.2-.9H392l2.5-2.5.2-.8h-3.3l-.2.8h2l-2.6 2.5-.2.9z"/><path id="WL_CH_02_d_075_svg__polygon66" d="M221.3 386.2h4.5v-13.3h3.6v-3.4h-11.7v3.4h3.6z"/><path d="M233.6 375.8c0-.7-.1-1.6-.1-2.1h-4c.1.6.1 1.8.1 3.6v8.8h4.3V380c0-1.6 1-2.9 2.3-2.9.5 0 1.1.1 1.3.1v-3.7c-.3 0-.4-.1-.7-.1-2 0-2.8 1.4-3.2 2.4z" id="WL_CH_02_d_075_svg__path68"/><path d="M249.8 378c0-2.6-.9-4.6-5.2-4.6-2.1 0-3.6.4-4.7.8l.1 3.1c.9-.6 2.2-1.2 3.6-1.2 1.7 0 2.3.9 2.3 1.7v.4h-1.1c-4.3 0-6.4 1.5-6.4 4.2 0 2.4 1.6 4 3.8 4 1.5 0 2.5-.6 3.7-2 0 .6.1 1.1.1 1.7h3.8c-.1-.7-.1-1.7-.1-2.7V378Zm-3.8 2.5c0 1.2-.2 3.2-2.2 3.2-.9 0-1.5-.4-1.5-1.5 0-1.5 1.3-2.1 3.2-2.1h.5z" id="WL_CH_02_d_075_svg__path70"/><path d="M259.7 373.4c-2.4 0-3.3 1.7-3.5 2.4 0-.7 0-1.6-.1-2.1h-4c.1.6.1 1.6.1 2.5v9.9h4.3v-6.8c0-1.3.5-2.4 1.6-2.4.8 0 1.2.6 1.2 1.8v7.5h4.3v-8.7c-.1-2.8-1.8-4.1-3.9-4.1z" id="WL_CH_02_d_075_svg__path72"/><path d="m272.1 378.9-1.4-.5c-1-.4-1.4-.7-1.4-1.1 0-.7.7-.9 1.5-.9 1.1 0 2.3.4 3.1.8l.1-3.1c-.9-.3-2.2-.6-3.5-.6-3.8 0-5.2 1.9-5.2 4.1 0 1.6.6 2.8 2.6 3.5l1.3.5c1.1.4 1.4.6 1.4 1.1 0 .6-.6.9-1.8.9-1.5 0-2.6-.5-3.2-.9l-.1 3.3c.7.3 2.4.6 3.8.6 3.7 0 5.3-1.5 5.3-4.1 0-2.3-.9-3.1-2.5-3.6z" id="WL_CH_02_d_075_svg__path74"/><path d="m290.9 376.7-2-.9c-1.5-.7-1.9-1.1-1.9-1.9 0-1 .8-1.6 2.1-1.6s2.6.4 3.4.8l.2-3.3c-1.4-.5-2.9-.7-4.2-.7-3.5 0-6.1 1.8-6.1 4.9 0 2.4.8 3.8 3.6 4.9l1 .4c1.3.5 2 .8 2 1.9 0 1.1-.6 1.8-2.3 1.8-1.6 0-3.2-.7-3.8-1l-.3 3.7c.8.2 2.4.6 4.4.6 3.9 0 6.5-1.9 6.5-5.5.2-2.4-1.1-3.4-2.6-4.1z" id="WL_CH_02_d_075_svg__path76"/><path id="WL_CH_02_d_075_svg__polygon78" d="M307.4 373.7h-5l-1.5 8.6h-.1l-1.5-8.6h-4.4l3.3 12.5h4.7l1.8-8.9h.1l1.7 8.9h4.6l3.4-12.5h-4.1l-1.5 8.6h-.1z"/><path id="WL_CH_02_d_075_svg__rect80" d="M316 373.7h4.3v12.4H316z"/><path id="WL_CH_02_d_075_svg__rect82" d="M316 368.2h4.3v3.6H316z"/><path d="m329.1 378.9-1.4-.5c-1-.4-1.4-.7-1.4-1.1 0-.7.7-.9 1.5-.9 1.1 0 2.3.4 3.1.8l.1-3.1c-.9-.3-2.2-.6-3.5-.6-3.8 0-5.2 1.9-5.2 4.1 0 1.6.6 2.8 2.6 3.5l1.3.5c1 .4 1.4.6 1.4 1.1 0 .6-.6.9-1.8.9-1.5 0-2.6-.5-3.2-.9l-.1 3.3c.7.3 2.4.6 3.8.6 3.7 0 5.3-1.5 5.3-4.1 0-2.3-.9-3.1-2.5-3.6z" id="WL_CH_02_d_075_svg__path84"/><path d="m339.7 378.9-1.4-.5c-1-.4-1.4-.7-1.4-1.1 0-.7.7-.9 1.5-.9 1.1 0 2.3.4 3.1.8l.1-3.1c-.9-.3-2.2-.6-3.5-.6-3.8 0-5.2 1.9-5.2 4.1 0 1.6.6 2.8 2.6 3.5l1.3.5c1 .4 1.4.6 1.4 1.1 0 .6-.6.9-1.8.9-1.5 0-2.6-.5-3.2-.9l-.1 3.3c.7.3 2.4.6 3.8.6 3.7 0 5.3-1.5 5.3-4.1 0-2.3-.9-3.1-2.5-3.6z" id="WL_CH_02_d_075_svg__path86"/><path id="WL_CH_02_d_075_svg__polygon88" d="M352.1 386.2h4.5v-13.3h3.6v-3.4h-11.7v3.4h3.6z"/><path d="M364.5 375.8c0-.7-.1-1.6-.1-2.1h-4c.1.6.1 1.8.1 3.6v8.8h4.3V380c0-1.6 1-2.9 2.3-2.9.5 0 1.1.1 1.3.1v-3.7c-.3 0-.4-.1-.7-.1-2.1 0-2.9 1.4-3.2 2.4z" id="WL_CH_02_d_075_svg__path90"/><path d="M380.6 378c0-2.6-.9-4.6-5.2-4.6-2.1 0-3.6.4-4.7.8l.1 3.1c.9-.6 2.2-1.2 3.6-1.2 1.7 0 2.3.9 2.3 1.7v.4h-1.1c-4.3 0-6.4 1.5-6.4 4.2 0 2.4 1.6 4 3.8 4 1.5 0 2.5-.6 3.7-2 0 .6.1 1.1.1 1.7h3.8c-.1-.7-.1-1.7-.1-2.7V378Zm-3.8 2.5c0 1.2-.2 3.2-2.2 3.2-.9 0-1.5-.4-1.5-1.5 0-1.5 1.3-2.1 3.2-2.1h.5z" id="WL_CH_02_d_075_svg__path92"/><path id="WL_CH_02_d_075_svg__rect94" d="M383.2 368.2h4.3v3.6h-4.3z"/><path id="WL_CH_02_d_075_svg__rect96" d="M383.2 373.7h4.3v12.4h-4.3z"/><path id="WL_CH_02_d_075_svg__rect98" d="M390.2 368.2h4.3v17.9h-4.3z"/><path d="M324.9 226.5h46l14.3-44.5H339l-14 44.3zm14.6-27.3h12L355 188h10.2l-3.6 11.2 11.9.1-3 9.6-11.9.1-3.6 11.3h-10.1l3.6-11.4h-12z" id="WL_CH_02_d_075_svg__path100" style="fill:#e41b18"/><path class="WL_CH_02_d_075_svg__st1" id="WL_CH_02_d_075_svg__polygon102" d="m358.5 208.9 11.9-.1 3-9.6h-11.8l3.6-11.2H355l-3.6 11.2h-11.9l-3.1 9.6h12l-3.6 11.4h10.1z"/></g></svg>